<svg id="Capa_1" enable-background="new 0 0 511.98 511.98" height="512" viewBox="0 0 511.98 511.98" width="512" xmlns="http://www.w3.org/2000/svg"><g><path d="m437.004 74.977c-48.35-48.35-112.635-74.977-181.014-74.977s-132.664 26.627-181.013 74.977c-48.35 48.349-74.977 112.634-74.977 181.013s26.627 132.664 74.977 181.014c48.35 48.349 112.635 74.977 181.014 74.977 101.791 0 193.905-60.274 234.672-153.557 1.659-3.795-.074-8.217-3.869-9.876-3.796-1.659-8.218.073-9.876 3.869-38.38 87.819-125.099 144.563-220.928 144.563-64.372 0-124.891-25.067-170.407-70.583s-70.583-106.035-70.583-170.407 25.067-124.89 70.583-170.407c45.517-45.516 106.035-70.583 170.407-70.583s124.891 25.067 170.407 70.583c45.517 45.517 70.583 106.035 70.583 170.407 0 23.545-3.383 46.801-10.056 69.122-1.187 3.968 1.069 8.147 5.038 9.334 3.966 1.185 8.147-1.069 9.334-5.038 7.089-23.716 10.684-48.417 10.684-73.418 0-68.379-26.627-132.664-74.976-181.013z"/><path d="m117.701 126.361c-3.13-2.711-7.867-2.372-10.579.758-30.968 35.746-48.022 81.514-48.022 128.871 0 108.565 88.325 196.89 196.89 196.89s196.89-88.325 196.89-196.89-88.324-196.89-196.89-196.89c-46.376 0-91.42 16.438-126.833 46.285-3.167 2.669-3.571 7.401-.901 10.568s7.402 3.571 10.568.901c32.712-27.57 74.322-42.754 117.166-42.754 100.294 0 181.89 81.596 181.89 181.89s-81.596 181.89-181.89 181.89-181.89-81.595-181.89-181.89c0-43.75 15.753-86.03 44.358-119.049 2.713-3.13 2.374-7.867-.757-10.58z"/><path d="m330.683 149.873v-49.715c0-4.142-3.358-7.5-7.5-7.5s-7.5 3.358-7.5 7.5v49.715c0 4.142 3.358 7.5 7.5 7.5s7.5-3.358 7.5-7.5z"/><path d="m272.789 92.658c-13.398 0-24.298 10.9-24.298 24.298v16.118c0 13.398 10.9 24.298 24.298 24.298s24.298-10.9 24.298-24.298v-16.118c-.001-13.398-10.9-24.298-24.298-24.298zm9.297 40.416c0 5.127-4.171 9.298-9.298 9.298s-9.298-4.171-9.298-9.298v-16.118c0-5.127 4.171-9.298 9.298-9.298s9.298 4.171 9.298 9.298z"/><path d="m205.596 92.658c-13.398 0-24.298 10.9-24.298 24.298v16.118c0 13.398 10.9 24.298 24.298 24.298s24.298-10.9 24.298-24.298v-16.118c0-13.398-10.9-24.298-24.298-24.298zm9.298 40.416c0 5.127-4.171 9.298-9.298 9.298s-9.298-4.171-9.298-9.298v-16.118c0-5.127 4.171-9.298 9.298-9.298s9.298 4.171 9.298 9.298z"/><path d="m170.902 349.626v49.714c0 4.142 3.358 7.5 7.5 7.5s7.5-3.358 7.5-7.5v-49.714c0-4.142-3.358-7.5-7.5-7.5s-7.5 3.358-7.5 7.5z"/><path d="m228.796 342.126c-13.398 0-24.298 10.9-24.298 24.298v16.119c0 13.398 10.9 24.298 24.298 24.298s24.298-10.9 24.298-24.298v-16.119c.001-13.398-10.9-24.298-24.298-24.298zm9.299 40.416c0 5.127-4.171 9.298-9.298 9.298s-9.298-4.171-9.298-9.298v-16.119c0-5.127 4.171-9.298 9.298-9.298s9.298 4.171 9.298 9.298z"/><path d="m295.989 342.126c-13.398 0-24.298 10.9-24.298 24.298v16.119c0 13.398 10.9 24.298 24.298 24.298s24.298-10.9 24.298-24.298v-16.119c0-13.398-10.9-24.298-24.298-24.298zm9.298 40.416c0 5.127-4.171 9.298-9.298 9.298s-9.298-4.171-9.298-9.298v-16.119c0-5.127 4.171-9.298 9.298-9.298s9.298 4.171 9.298 9.298z"/><path d="m338.883 349.626v49.714c0 4.142 3.358 7.5 7.5 7.5s7.5-3.358 7.5-7.5v-49.714c0-4.142-3.358-7.5-7.5-7.5s-7.5 3.358-7.5 7.5z"/><path d="m397.875 234.301v-49.715c0-4.142-3.358-7.5-7.5-7.5s-7.5 3.358-7.5 7.5v49.715c0 4.142 3.358 7.5 7.5 7.5s7.5-3.358 7.5-7.5z"/><path d="m315.683 217.503c0 13.398 10.9 24.298 24.298 24.298s24.298-10.9 24.298-24.298v-16.119c0-13.398-10.9-24.298-24.298-24.298s-24.298 10.9-24.298 24.298zm15-16.119c0-5.127 4.171-9.298 9.298-9.298s9.298 4.171 9.298 9.298v16.119c0 5.127-4.171 9.298-9.298 9.298s-9.298-4.171-9.298-9.298z"/><path d="m289.586 177.086c-4.142 0-7.5 3.358-7.5 7.5v49.715c0 4.142 3.358 7.5 7.5 7.5s7.5-3.358 7.5-7.5v-49.715c0-4.142-3.357-7.5-7.5-7.5z"/><path d="m248.49 234.301c0 4.142 3.358 7.5 7.5 7.5s7.5-3.358 7.5-7.5v-49.715c0-4.142-3.358-7.5-7.5-7.5s-7.5 3.358-7.5 7.5z"/><path d="m222.394 241.801c4.142 0 7.5-3.358 7.5-7.5v-49.715c0-4.142-3.358-7.5-7.5-7.5s-7.5 3.358-7.5 7.5v49.715c0 4.142 3.358 7.5 7.5 7.5z"/><path d="m147.701 201.384v16.119c0 13.398 10.9 24.298 24.298 24.298s24.298-10.9 24.298-24.298v-16.119c0-13.398-10.9-24.298-24.298-24.298s-24.298 10.9-24.298 24.298zm33.596 0v16.119c0 5.127-4.171 9.298-9.298 9.298s-9.298-4.171-9.298-9.298v-16.119c0-5.127 4.171-9.298 9.298-9.298s9.298 4.171 9.298 9.298z"/><path d="m121.605 177.086c-4.142 0-7.5 3.358-7.5 7.5v49.715c0 4.142 3.358 7.5 7.5 7.5s7.5-3.358 7.5-7.5v-49.715c0-4.142-3.358-7.5-7.5-7.5z"/><path d="m349.279 285.813v16.118c0 13.398 10.9 24.298 24.298 24.298s24.298-10.9 24.298-24.298v-16.118c0-13.398-10.9-24.298-24.298-24.298s-24.298 10.9-24.298 24.298zm33.596 0v16.118c0 5.127-4.171 9.298-9.298 9.298s-9.298-4.171-9.298-9.298v-16.118c0-5.127 4.171-9.298 9.298-9.298s9.298 4.171 9.298 9.298z"/><path d="m315.683 318.729c0 4.142 3.358 7.5 7.5 7.5s7.5-3.358 7.5-7.5v-49.715c0-4.142-3.358-7.5-7.5-7.5s-7.5 3.358-7.5 7.5z"/><path d="m248.49 301.931c0 13.398 10.9 24.298 24.298 24.298s24.298-10.9 24.298-24.298v-16.118c0-13.398-10.9-24.298-24.298-24.298s-24.298 10.9-24.298 24.298zm15-16.118c0-5.127 4.171-9.298 9.298-9.298s9.298 4.171 9.298 9.298v16.118c0 5.127-4.171 9.298-9.298 9.298s-9.298-4.171-9.298-9.298z"/><path d="m214.894 318.729c0 4.142 3.358 7.5 7.5 7.5s7.5-3.358 7.5-7.5v-49.715c0-4.142-3.358-7.5-7.5-7.5s-7.5 3.358-7.5 7.5z"/><path d="m196.297 318.729v-49.715c0-4.142-3.358-7.5-7.5-7.5s-7.5 3.358-7.5 7.5v49.715c0 4.142 3.358 7.5 7.5 7.5s7.5-3.357 7.5-7.5z"/><path d="m114.105 285.813v16.118c0 13.398 10.9 24.298 24.298 24.298s24.298-10.9 24.298-24.298v-16.118c0-13.398-10.9-24.298-24.298-24.298s-24.298 10.9-24.298 24.298zm33.596 0v16.118c0 5.127-4.171 9.298-9.298 9.298s-9.298-4.171-9.298-9.298v-16.118c0-5.127 4.171-9.298 9.298-9.298s9.298 4.171 9.298 9.298z"/></g></svg>