<svg id="Layer_1" height="512" viewBox="0 0 64 64" width="512" xmlns="http://www.w3.org/2000/svg" data-name="Layer 1"><path d="m47 32a15 15 0 1 0 -15 15 15.017 15.017 0 0 0 15-15zm-28 0a13 13 0 1 1 13 13 13.015 13.015 0 0 1 -13-13z"/><path d="m38.5 29.5h2v9h-2z"/><path d="m33.5 32.5h2v6h-2z"/><path d="m28.5 30.5h2v8h-2z"/><path d="m23.5 33.5h2v5h-2z"/><path d="m29.528 27.683 4.457 2.674a1 1 0 0 0 1.07-.025l6-4-1.11-1.664-5.473 3.649-4.457-2.674a1 1 0 0 0 -1.07.025l-6 4 1.11 1.664z"/><path d="m1 1h2v2h-2z"/><path d="m5 1h2v2h-2z"/><path d="m9 1h2v2h-2z"/><path d="m13 1h2v2h-2z"/><path d="m49 61h2v2h-2z"/><path d="m53 61h2v2h-2z"/><path d="m57 61h2v2h-2z"/><path d="m61 61h2v2h-2z"/><path d="m53.908 14.281a.1.1 0 0 0 .184 0 5.05 5.05 0 0 1 3.189-3.189.1.1 0 0 0 0-.184 5.05 5.05 0 0 1 -3.189-3.189.1.1 0 0 0 -.184 0 5.05 5.05 0 0 1 -3.189 3.189.1.1 0 0 0 0 .184 5.05 5.05 0 0 1 3.189 3.189z"/><path d="m10.092 50.417a.1.1 0 0 0 -.184 0 4 4 0 0 1 -2.491 2.491.1.1 0 0 0 0 .184 4 4 0 0 1 2.491 2.491.1.1 0 0 0 .184 0 4 4 0 0 1 2.491-2.491.1.1 0 0 0 0-.184 4 4 0 0 1 -2.491-2.491z"/><path d="m32 51c-7.01 0-14.566-3.192-21.851-9.23a59.255 59.255 0 0 1 -8.949-9.17 1 1 0 0 1 0-1.2 59.255 59.255 0 0 1 8.95-9.172c7.284-6.036 14.84-9.228 21.85-9.228s14.566 3.192 21.851 9.23a59.255 59.255 0 0 1 8.949 9.17 1 1 0 0 1 0 1.2 59.255 59.255 0 0 1 -8.95 9.172c-7.284 6.036-14.84 9.228-21.85 9.228zm-28.727-19c2.494 3.082 14.546 17 28.727 17s26.233-13.918 28.727-17c-2.494-3.082-14.546-17-28.727-17s-26.233 13.918-28.727 17z"/></svg>