<svg enable-background="new 0 0 512 512" height="512" viewBox="0 0 512 512" width="512" xmlns="http://www.w3.org/2000/svg"><g id="_x30_1_Nft"><g><path d="m468.172 246.341c-4.233 0-7.665 3.432-7.665 7.665v3.986c0 4.233 3.432 7.665 7.665 7.665s7.665-3.432 7.665-7.665v-3.986c0-4.233-3.432-7.665-7.665-7.665z"/><path d="m63.758 398.772 164.707 95.114c8.496 4.937 18.018 7.403 27.539 7.403 9.518 0 19.032-2.466 27.513-7.392l164.703-95.114c17.037-9.761 27.618-28.022 27.618-47.66v-58.102c0-4.233-3.432-7.665-7.665-7.665s-7.665 3.432-7.665 7.665v58.102c0 14.155-7.628 27.322-19.93 34.37l-164.744 95.137c-12.231 7.111-27.431 7.115-39.684-.011l-164.749-95.138c-12.28-7.036-19.908-20.203-19.908-34.358v-190.247c0-14.155 7.628-27.322 19.93-34.37l164.744-95.136c12.231-7.111 27.43-7.115 39.684.011l164.748 95.137c12.28 7.036 19.908 20.203 19.908 34.358v58.102c0 4.233 3.432 7.665 7.665 7.665s7.665-3.432 7.665-7.665v-58.102c0-19.638-10.581-37.899-27.595-47.649l-164.707-95.114c-16.988-9.87-38.086-9.866-55.052-.011l-164.702 95.114c-17.037 9.761-27.618 28.022-27.618 47.66v190.247c0 19.638 10.581 37.899 27.595 47.649z"/><path d="m259.833 86.523c-2.373-1.37-5.292-1.37-7.665 0l-141.022 81.419c-2.373 1.37-3.833 3.9-3.833 6.64v162.835c0 2.74 1.46 5.27 3.833 6.64l141.022 81.419c1.186.685 2.508 1.026 3.833 1.026s2.646-.341 3.833-1.026l141.023-81.419c2.373-1.37 3.833-3.9 3.833-6.64v-162.835c0-2.74-1.46-5.27-3.833-6.64zm129.524 246.47-133.357 76.992-133.357-76.992v-153.987l133.357-76.992 133.357 76.992z"/><path d="m208.437 210.475c-4.233 0-7.665 3.432-7.665 7.665v50.014l-35.485-54.214c-1.86-2.833-5.371-4.113-8.605-3.148-3.249.969-5.476 3.956-5.476 7.347v75.719c0 4.233 3.432 7.665 7.665 7.665s7.665-3.432 7.665-7.665v-50.014l35.485 54.214c4.155 6.33 14.08 3.436 14.08-4.199v-75.719c.001-4.233-3.431-7.665-7.664-7.665z"/><path d="m299.303 225.805h19.245v68.054c0 4.233 3.432 7.665 7.665 7.665s7.665-3.432 7.665-7.665v-68.054h19.249c4.233 0 7.665-3.432 7.665-7.665s-3.432-7.665-7.665-7.665h-53.824c-4.233 0-7.665 3.432-7.665 7.665s3.432 7.665 7.665 7.665z"/><path d="m231.178 218.14v75.719c0 4.233 3.432 7.665 7.665 7.665s7.665-3.432 7.665-7.665v-30.193h30.241c4.233 0 7.665-3.432 7.665-7.665s-3.432-7.665-7.665-7.665h-30.241v-22.531h30.241c4.233 0 7.665-3.432 7.665-7.665s-3.432-7.665-7.665-7.665h-37.906c-4.233 0-7.665 3.432-7.665 7.665z"/></g></g></svg>