<svg height="512" viewBox="0 0 128 128" width="512" xmlns="http://www.w3.org/2000/svg"><g><path d="m109 107.25h-4.5v-20.8a5.037 5.037 0 0 0 -5.031-5.031h-20.8v-22.183a5.037 5.037 0 0 0 -5.031-5.031h-19.272a5.037 5.037 0 0 0 -5.031 5.031v10.315h-20.8a5.037 5.037 0 0 0 -5.035 5.031v32.668h-4.5a1.75 1.75 0 0 0 0 3.5h90a1.75 1.75 0 0 0 0-3.5zm-82-32.668a1.532 1.532 0 0 1 1.531-1.531h20.8v34.2h-22.331zm25.835-3.282v-12.064a1.532 1.532 0 0 1 1.531-1.531h19.268a1.533 1.533 0 0 1 1.531 1.531v48.014h-22.33zm25.83 35.949v-22.33h20.8a1.533 1.533 0 0 1 1.535 1.531v20.8z"/><path d="m55.194 36.42-1.478 8.623a1.75 1.75 0 0 0 2.539 1.845l7.745-4.071 7.744 4.071a1.75 1.75 0 0 0 2.539-1.845l-1.483-8.623 6.265-6.106a1.75 1.75 0 0 0 -.97-2.985l-8.658-1.258-3.871-7.845a1.75 1.75 0 0 0 -3.139 0l-3.872 7.845-8.655 1.258a1.75 1.75 0 0 0 -.97 2.985zm4.777-7.02a1.752 1.752 0 0 0 1.318-.957l2.711-5.489 2.71 5.491a1.752 1.752 0 0 0 1.318.957l6.059.881-4.387 4.274a1.75 1.75 0 0 0 -.5 1.548l1.035 6.035-5.419-2.849a1.751 1.751 0 0 0 -1.629 0l-5.422 2.849 1.035-6.04a1.747 1.747 0 0 0 -.5-1.548l-4.384-4.274z"/></g></svg>