<svg id="Arrow_Outline" enable-background="new 0 0 64 64" height="512" viewBox="0 0 64 64" width="512" xmlns="http://www.w3.org/2000/svg"><g><g><path d="m50.342 39.917c-.391-.391-1.023-.391-1.414 0s-.391 1.023 0 1.414l3.113 3.113c.149.149.234.345.234.537 0 .197-.081.383-.235.537l-9.19 9.2c-.336.333-.72.21-.828.165-.131-.055-.426-.221-.46-.62l.845-4.402c.056-.293-.021-.596-.211-.825-.19-.23-.473-.363-.771-.363h-17.227c-2.249 0-4.363-.876-5.954-2.466l-1.473-1.473c-.391-.391-1.024-.391-1.414 0-.391.391-.391 1.024 0 1.414l1.473 1.473c1.968 1.968 4.584 3.052 7.368 3.052h16.017l-.638 3.324c-.012.062-.018.125-.018.188 0 1.133.649 2.108 1.694 2.543.353.147.717.219 1.076.219.708 0 1.395-.279 1.933-.812l9.194-9.204c.529-.529.82-1.222.82-1.95 0-.718-.299-1.43-.82-1.951z"/><path d="m13.937 33c.99 0 1.917.381 2.609 1.073l5.278 5.278c1.255 1.256 2.926 1.948 4.704 1.948h14.897c.298 0 .581-.133.771-.363.19-.229.267-.532.211-.825l-.845-4.401c.037-.416.362-.584.465-.627.14-.059.499-.159.819.158l1.891 1.896c.39.391 1.022.392 1.414.002.391-.39.392-1.023.002-1.414l-1.895-1.9c-.805-.799-1.956-1.024-3-.588-1.048.437-1.7 1.414-1.7 2.551 0 .063.006.126.018.188l.638 3.323h-13.686c-1.243 0-2.411-.484-3.29-1.362l-5.278-5.278c-1.07-1.07-2.499-1.659-4.023-1.659-1.865 0-3.615.915-4.682 2.447-1.569 2.254-1.239 5.359.784 7.382l1.411 1.411c.195.195.451.293.707.293s.512-.098.707-.293c.391-.391.391-1.024 0-1.414l-1.411-1.411c-1.315-1.316-1.555-3.391-.556-4.826.703-1.009 1.811-1.589 3.04-1.589z"/><path d="m47.065 39.469c.195.196.451.293.708.293.256 0 .512-.098.707-.292.391-.39.391-1.023.001-1.414l-.455-.456c-.39-.391-1.024-.391-1.414-.001-.391.39-.391 1.023-.001 1.414z"/><path d="m14.026 24.438c.195.194.451.292.706.292.256 0 .513-.098.708-.294.39-.392.389-1.024-.002-1.415l-3.479-3.466c-.149-.149-.234-.345-.234-.537 0-.197.081-.383.235-.537l9.19-9.2c.334-.333.719-.21.828-.165.131.055.426.221.46.62l-.845 4.402c-.056.293.021.596.211.825.19.23.473.363.771.363h15.019c.552 0 1-.448 1-1s-.448-1-1-1h-13.809l.638-3.324c.012-.062.018-.125.018-.188 0-1.133-.649-2.108-1.694-2.543-1.047-.436-2.198-.211-3.009.593l-9.194 9.204c-.529.529-.82 1.222-.82 1.95 0 .718.299 1.43.821 1.952z"/><path d="m53.961 23.17-6.791-6.79c-1.029-1.029-2.238-1.818-3.595-2.345-.515-.2-1.094.055-1.294.57s.055 1.094.57 1.294c1.097.426 2.074 1.064 2.906 1.895l6.791 6.791c1.315 1.316 1.555 3.391.556 4.826-.704 1.009-1.812 1.589-3.042 1.589-.99 0-1.916-.381-2.609-1.073l-5.277-5.278c-1.256-1.256-2.927-1.948-4.704-1.948h-14.897c-.298 0-.581.133-.771.363-.19.229-.267.532-.211.825l.845 4.401c-.037.416-.362.584-.465.627-.14.058-.498.16-.819-.158l-1.785-1.79c-.39-.391-1.022-.392-1.414-.002-.391.39-.392 1.023-.002 1.414l1.789 1.794c.805.798 1.954 1.023 3 .588 1.048-.437 1.7-1.414 1.7-2.551 0-.063-.006-.126-.018-.188l-.638-3.323h13.688c1.243 0 2.411.484 3.29 1.362l5.277 5.278c1.069 1.07 2.498 1.659 4.021 1.659 1.865 0 3.615-.915 4.682-2.447 1.569-2.255 1.24-5.359-.783-7.383z"/><path d="m15.89 24.901c-.39.391-.39 1.024.001 1.414l.302.301c.195.195.451.292.707.292s.512-.098.708-.293c.39-.391.39-1.024-.001-1.414l-.303-.301c-.392-.391-1.025-.39-1.414.001z"/></g></g></svg>