<svg width="25" height="25" viewBox="0 0 25 25" fill="none" xmlns="http://www.w3.org/2000/svg">
<path d="M4.15852 3.32521C4.03934 3.32523 3.92154 3.35082 3.81309 3.40025C3.70463 3.44968 3.60804 3.52179 3.52983 3.61173C3.45162 3.70166 3.3936 3.80733 3.35971 3.92159C3.32581 4.03586 3.31681 4.15606 3.33333 4.2741V9.16668C3.33177 9.27711 3.35217 9.38674 3.39334 9.48921C3.43452 9.59169 3.49566 9.68496 3.57319 9.7636C3.65073 9.84224 3.74312 9.90469 3.84501 9.94731C3.94689 9.98993 4.05622 10.0119 4.16666 10.0119C4.2771 10.0119 4.38643 9.98993 4.48832 9.94731C4.5902 9.90469 4.68259 9.84224 4.76013 9.7636C4.83766 9.68496 4.8988 9.59169 4.93998 9.48921C4.98115 9.38674 5.00156 9.27711 4.99999 9.16668V6.1784L8.99413 10.1725C9.07092 10.2525 9.1629 10.3164 9.26467 10.3604C9.36644 10.4043 9.47597 10.4276 9.58684 10.4287C9.69771 10.4298 9.80769 10.4088 9.91033 10.3669C10.013 10.325 10.1062 10.2631 10.1846 10.1847C10.263 10.1063 10.325 10.013 10.3669 9.91035C10.4088 9.8077 10.4298 9.69773 10.4287 9.58686C10.4276 9.47599 10.4043 9.36646 10.3603 9.26469C10.3164 9.16291 10.2525 9.07094 10.1725 8.99415L6.17838 5.00001H9.16666C9.27709 5.00157 9.38672 4.98117 9.4892 4.93999C9.59167 4.89882 9.68494 4.83768 9.76358 4.76014C9.84222 4.68261 9.90467 4.59021 9.94729 4.48833C9.98991 4.38645 10.0119 4.27712 10.0119 4.16668C10.0119 4.05624 9.98991 3.9469 9.94729 3.84502C9.90467 3.74314 9.84222 3.65075 9.76358 3.57321C9.68494 3.49567 9.59167 3.43454 9.4892 3.39336C9.38672 3.35218 9.27709 3.33178 9.16666 3.33334H4.26432C4.22926 3.32839 4.19392 3.32567 4.15852 3.32521ZM20.8171 3.32521C20.786 3.32619 20.755 3.32891 20.7243 3.33334H15.8333C15.7229 3.33178 15.6133 3.35218 15.5108 3.39336C15.4083 3.43454 15.3151 3.49567 15.2364 3.57321C15.1578 3.65075 15.0953 3.74314 15.0527 3.84502C15.0101 3.9469 14.9881 4.05624 14.9881 4.16668C14.9881 4.27712 15.0101 4.38645 15.0527 4.48833C15.0953 4.59021 15.1578 4.68261 15.2364 4.76014C15.3151 4.83768 15.4083 4.89882 15.5108 4.93999C15.6133 4.98117 15.7229 5.00157 15.8333 5.00001H18.8216L14.8275 8.99415C14.7475 9.07094 14.6836 9.16291 14.6396 9.26469C14.5957 9.36646 14.5724 9.47599 14.5713 9.58686C14.5702 9.69773 14.5912 9.8077 14.6331 9.91035C14.675 10.013 14.737 10.1063 14.8154 10.1847C14.8938 10.2631 14.987 10.325 15.0897 10.3669C15.1923 10.4088 15.3023 10.4298 15.4131 10.4287C15.524 10.4276 15.6335 10.4043 15.7353 10.3604C15.8371 10.3164 15.9291 10.2525 16.0059 10.1725L20 6.1784V9.16668C19.9984 9.27711 20.0188 9.38674 20.06 9.48921C20.1012 9.59169 20.1623 9.68496 20.2399 9.7636C20.3174 9.84224 20.4098 9.90469 20.5117 9.94731C20.6136 9.98993 20.7229 10.0119 20.8333 10.0119C20.9438 10.0119 21.0531 9.98993 21.155 9.94731C21.2569 9.90469 21.3493 9.84224 21.4268 9.7636C21.5043 9.68496 21.5655 9.59169 21.6066 9.48921C21.6478 9.38674 21.6682 9.27711 21.6667 9.16668V4.27247C21.6833 4.15249 21.6735 4.03034 21.6381 3.91451C21.6026 3.79869 21.5424 3.69198 21.4615 3.60181C21.3807 3.51164 21.2811 3.44019 21.1698 3.39242C21.0585 3.34465 20.9381 3.32171 20.8171 3.32521ZM9.56705 14.5752C9.35055 14.5817 9.14507 14.6721 8.99413 14.8275L4.99999 18.8216V15.8333C5.00152 15.7219 4.98066 15.6112 4.93865 15.5079C4.89663 15.4046 4.83432 15.3108 4.7554 15.2321C4.67648 15.1533 4.58256 15.0912 4.4792 15.0493C4.37583 15.0075 4.26513 14.9869 4.15364 14.9886C3.93291 14.9921 3.72257 15.083 3.56877 15.2413C3.41498 15.3997 3.3303 15.6126 3.33333 15.8333V20.7064C3.31125 20.8375 3.32083 20.9719 3.36128 21.0985C3.40173 21.2251 3.47187 21.3402 3.56585 21.4342C3.65983 21.5281 3.77492 21.5983 3.90152 21.6387C4.02812 21.6792 4.16256 21.6888 4.29361 21.6667H9.16666C9.27709 21.6682 9.38672 21.6478 9.4892 21.6067C9.59167 21.5655 9.68494 21.5043 9.76358 21.4268C9.84222 21.3493 9.90467 21.2569 9.94729 21.155C9.98991 21.0531 10.0119 20.9438 10.0119 20.8333C10.0119 20.7229 9.98991 20.6136 9.94729 20.5117C9.90467 20.4098 9.84222 20.3174 9.76358 20.2399C9.68494 20.1623 9.59167 20.1012 9.4892 20.06C9.38672 20.0189 9.27709 19.9984 9.16666 20H6.17838L10.1725 16.0059C10.2929 15.8888 10.3752 15.7381 10.4085 15.5735C10.4418 15.4089 10.4246 15.2381 10.3591 15.0834C10.2937 14.9288 10.183 14.7975 10.0417 14.7068C9.90035 14.6161 9.73491 14.5703 9.56705 14.5752ZM15.4085 14.5752C15.2427 14.5753 15.0807 14.6247 14.9432 14.7173C14.8057 14.8099 14.699 14.9414 14.6366 15.095C14.5742 15.2486 14.559 15.4173 14.593 15.5796C14.627 15.7418 14.7087 15.8902 14.8275 16.0059L18.8216 20H15.8333C15.7229 19.9984 15.6133 20.0189 15.5108 20.06C15.4083 20.1012 15.3151 20.1623 15.2364 20.2399C15.1578 20.3174 15.0953 20.4098 15.0527 20.5117C15.0101 20.6136 14.9881 20.7229 14.9881 20.8333C14.9881 20.9438 15.0101 21.0531 15.0527 21.155C15.0953 21.2569 15.1578 21.3493 15.2364 21.4268C15.3151 21.5043 15.4083 21.5655 15.5108 21.6067C15.6133 21.6478 15.7229 21.6682 15.8333 21.6667H20.7064C20.8374 21.6888 20.9719 21.6792 21.0985 21.6387C21.2251 21.5983 21.3402 21.5281 21.4341 21.4342C21.5281 21.3402 21.5983 21.2251 21.6387 21.0985C21.6792 20.9719 21.6887 20.8375 21.6667 20.7064V15.8333C21.6682 15.7219 21.6473 15.6112 21.6053 15.5079C21.5633 15.4046 21.501 15.3108 21.4221 15.2321C21.3431 15.1533 21.2492 15.0912 21.1459 15.0493C21.0425 15.0075 20.9318 14.9869 20.8203 14.9886C20.5996 14.9921 20.3892 15.083 20.2354 15.2413C20.0816 15.3997 19.997 15.6126 20 15.8333V18.8216L16.0059 14.8275C15.9282 14.7477 15.8353 14.6842 15.7327 14.6409C15.6301 14.5975 15.5199 14.5752 15.4085 14.5752Z" fill="white"/>
</svg>
