<svg width="27" height="30" viewBox="0 0 27 30" fill="none" xmlns="http://www.w3.org/2000/svg">
<path d="M21.4096 14.7336H23.5022C23.9753 14.7336 24.3602 14.3487 24.3602 13.8756V11.783C24.3602 11.3099 23.9753 10.925 23.5022 10.925H21.4096C20.9365 10.925 20.5516 11.3099 20.5516 11.783V13.8756C20.5516 14.3487 20.9365 14.7336 21.4096 14.7336ZM21.4305 11.8039H23.4813V13.8547H21.4305V11.8039ZM21.4096 20.3H23.5022C23.9753 20.3 24.3602 19.9151 24.3602 19.4421V17.3494C24.3602 16.8763 23.9753 16.4914 23.5022 16.4914H21.4096C20.9365 16.4914 20.5516 16.8763 20.5516 17.3494V19.4421C20.5516 19.9151 20.9365 20.3 21.4096 20.3ZM21.4305 17.3704H23.4813V19.4211H21.4305V17.3704ZM15.4379 14.7336H17.5305C18.0036 14.7336 18.3885 14.3487 18.3885 13.8756V11.783C18.3885 11.3099 18.0036 10.925 17.5305 10.925H15.4379C14.9648 10.925 14.5799 11.3099 14.5799 11.783V13.8756C14.5799 14.3487 14.9648 14.7336 15.4379 14.7336ZM15.4588 11.8039H17.5096V13.8547H15.4588V11.8039ZM5.58727 21.7969H3.49465C3.02156 21.7969 2.63666 22.1818 2.63666 22.6549V24.7475C2.63666 25.2206 3.02156 25.6055 3.49465 25.6055H5.58727C6.06035 25.6055 6.44525 25.2206 6.44525 24.7475V22.6549C6.44525 22.1818 6.06035 21.7969 5.58727 21.7969ZM5.56635 24.7266H3.51557V22.6758H5.56635V24.7266ZM5.58727 10.925H3.49465C3.02156 10.925 2.63666 11.3099 2.63666 11.783V13.8756C2.63666 14.3487 3.02156 14.7336 3.49465 14.7336H5.58727C6.06035 14.7336 6.44525 14.3487 6.44525 13.8756V11.783C6.44525 11.3099 6.06035 10.925 5.58727 10.925ZM5.56635 13.8547H3.51557V11.8039H5.56635V13.8547ZM15.4379 20.1695H17.5305C18.0036 20.1695 18.3885 19.7846 18.3885 19.3116V17.2189C18.3885 16.7459 18.0036 16.361 17.5305 16.361H15.4379C14.9648 16.361 14.5799 16.7459 14.5799 17.2189V19.3116C14.5799 19.7846 14.9648 20.1695 15.4379 20.1695ZM15.4588 17.2399H17.5096V19.2906H15.4588V17.2399ZM24.7966 2.00824H22.9178V1.33635C22.9178 0.599473 22.3183 0 21.5814 0H21.3796C20.6428 0 20.0433 0.599473 20.0433 1.33635V2.00824H6.9535V1.33635C6.9535 0.599473 6.35402 0 5.61715 0H5.41535C4.67848 0 4.079 0.599473 4.079 1.33635V2.00824H2.2002C0.987011 2.00824 0 2.99525 0 4.20844V27.8027C0 29.0143 0.985664 30 2.19727 30H24.7997C26.0113 30 26.997 29.0143 26.997 27.8027V4.20844C26.9969 2.99525 26.0099 2.00824 24.7966 2.00824ZM20.9222 1.33635C20.9222 1.0841 21.1274 0.878906 21.3797 0.878906H21.5815C21.8337 0.878906 22.0389 1.0841 22.0389 1.33635V2.00824H20.9222V1.33635ZM4.95797 1.33635C4.95797 1.0841 5.16316 0.878906 5.41541 0.878906H5.61721C5.86945 0.878906 6.07465 1.0841 6.07465 1.33635V2.00824H4.95803V1.33635H4.95797ZM26.118 27.8027C26.118 28.5297 25.5266 29.1211 24.7996 29.1211H2.19721C1.47023 29.1211 0.878848 28.5297 0.878848 27.8027V27.8C1.24705 28.0774 1.70473 28.2422 2.2002 28.2422H20.0176C20.6053 28.2422 21.1578 28.0133 21.5733 27.5977L26.118 23.0531V27.8027ZM21.1249 26.8032C21.1594 26.661 21.1781 26.5127 21.1781 26.36V23.4266C21.1781 22.8735 21.6282 22.4234 22.1814 22.4234H25.1147C25.2674 22.4234 25.4157 22.4047 25.5579 22.3702L21.1249 26.8032ZM26.118 8.28832H7.39295C7.15025 8.28832 6.9535 8.48508 6.9535 8.72777C6.9535 8.97047 7.15025 9.16723 7.39295 9.16723H26.118V20.5413C26.118 21.0945 25.6679 21.5446 25.1147 21.5446H22.1814C21.1436 21.5446 20.2992 22.3889 20.2992 23.4267V26.3601C20.2992 26.9133 19.8492 27.3633 19.296 27.3633H2.2002C1.47164 27.3633 0.878906 26.7706 0.878906 26.042V9.16723H5.63514C5.87783 9.16723 6.07459 8.97047 6.07459 8.72777C6.07459 8.48508 5.87783 8.28832 5.63514 8.28832H0.878848V4.20844C0.878848 3.47988 1.47158 2.88715 2.20014 2.88715H4.079V4.17926C4.079 4.91613 4.67848 5.51561 5.41535 5.51561C5.65805 5.51561 5.85481 5.31885 5.85481 5.07615C5.85481 4.83346 5.65805 4.6367 5.41535 4.6367C5.16311 4.6367 4.95791 4.4315 4.95791 4.17926V2.88715H20.0433V4.17926C20.0433 4.91613 20.6428 5.51561 21.3797 5.51561C21.6224 5.51561 21.8191 5.31885 21.8191 5.07615C21.8191 4.83346 21.6224 4.6367 21.3797 4.6367C21.1274 4.6367 20.9222 4.4315 20.9222 4.17926V2.88715H24.7967C25.5253 2.88715 26.118 3.47988 26.118 4.20844V8.28832ZM5.58727 16.361H3.49465C3.02156 16.361 2.63666 16.7459 2.63666 17.2189V19.3116C2.63666 19.7846 3.02156 20.1695 3.49465 20.1695H5.58727C6.06035 20.1695 6.44525 19.7846 6.44525 19.3116V17.2189C6.44525 16.7458 6.06035 16.361 5.58727 16.361ZM5.56635 19.2906H3.51557V17.2399H5.56635V19.2906ZM9.46629 14.7336H11.5589C12.032 14.7336 12.4169 14.3487 12.4169 13.8756V11.783C12.4169 11.3099 12.032 10.925 11.5589 10.925H9.46629C8.9932 10.925 8.6083 11.3099 8.6083 11.783V13.8756C8.6083 14.3487 8.9932 14.7336 9.46629 14.7336ZM9.48721 11.8039H11.538V13.8547H9.48721V11.8039ZM15.4583 24.7266C15.4474 24.4935 15.2551 24.308 15.0193 24.308C14.7766 24.308 14.5799 24.5048 14.5799 24.7475C14.5799 25.2206 14.9648 25.6055 15.4379 25.6055H17.5305C18.0036 25.6055 18.3885 25.2206 18.3885 24.7475V22.6549C18.3885 22.1818 18.0036 21.7969 17.5305 21.7969H15.4379C14.9648 21.7969 14.5799 22.1818 14.5799 22.6549V23.2584C14.5799 23.5011 14.7766 23.6978 15.0193 23.6978C15.262 23.6978 15.4588 23.5011 15.4588 23.2584V22.6758H17.5096V24.7266H15.4583ZM9.46629 20.1695H11.5589C12.032 20.1695 12.4169 19.7846 12.4169 19.3116V17.2189C12.4169 16.7459 12.032 16.361 11.5589 16.361H9.46629C8.9932 16.361 8.6083 16.7459 8.6083 17.2189V19.3116C8.6083 19.7846 8.9932 20.1695 9.46629 20.1695ZM9.48721 17.2399H11.538V19.2906H9.48721V17.2399ZM9.46629 25.6055H11.5589C12.032 25.6055 12.4169 25.2206 12.4169 24.7475V22.6549C12.4169 22.1818 12.032 21.7969 11.5589 21.7969H9.46629C8.9932 21.7969 8.6083 22.1818 8.6083 22.6549V24.7475C8.6083 25.2206 8.9932 25.6055 9.46629 25.6055ZM9.48721 22.6758H11.538V24.7266H9.48721V22.6758Z" fill="white"/>
</svg>
