<svg width="23" height="19" viewBox="0 0 23 19" fill="none" xmlns="http://www.w3.org/2000/svg">
<path d="M21.7704 8.07993C20.855 4.86648 19.8226 3.20611 19.8059 3.17632C19.7471 3.10293 18.2882 1.31929 14.772 0L14.3074 1.29239C15.9801 1.92005 17.1669 2.68575 17.8196 3.1805C15.871 2.58602 13.553 2.22194 11.5 2.22194C9.44698 2.22194 7.12897 2.58602 5.18044 3.1805C5.83306 2.6858 7.01981 1.92005 8.69256 1.29239L8.22794 0C4.71185 1.31929 3.25297 3.10293 3.19412 3.17632C3.17746 3.20611 2.14502 4.86648 1.2296 8.07993C0.347336 11.1767 0.0121738 15.5454 0 15.7206C0.0786133 15.8461 1.88672 19 6.81433 19L8.06334 17.1522C6.66403 16.7726 5.32971 16.1605 4.10829 15.3298L4.85502 14.1837C6.82552 15.5237 9.12332 16.232 11.5 16.232C13.8767 16.232 16.1745 15.5237 18.145 14.1837L18.8917 15.3298C17.6703 16.1605 16.336 16.7726 14.9367 17.1522L16.1857 19C21.1133 19 22.9214 15.8461 23 15.7206C22.9878 15.5454 22.6527 11.1767 21.7704 8.07993ZM8.38431 11.6818H7.03665V9.3871H8.38431V11.6818ZM15.9633 11.6818H14.6157V9.3871H15.9633V11.6818Z" fill="url(#paint0_linear_7964_4952)"/>
<defs>
<linearGradient id="paint0_linear_7964_4952" x1="11.5" y1="0" x2="11.5" y2="19" gradientUnits="userSpaceOnUse">
<stop stop-color="#5B218F"/>
<stop offset="1" stop-color="#DA57FF"/>
</linearGradient>
</defs>
</svg>
