<svg fill="#000000" xmlns="http://www.w3.org/2000/svg"  viewBox="0 0 48 48" width="48px" height="48px"><path d="M 15 8.0039062 A 1.50015 1.50015 0 0 0 13.828125 8.5664062 L 3.828125 21.0625 A 1.50015 1.50015 0 0 0 3.9121094 23.033203 L 22.912109 43.033203 A 1.50015 1.50015 0 0 0 25.087891 43.033203 L 44.087891 23.033203 A 1.50015 1.50015 0 0 0 44.171875 21.0625 L 34.171875 8.5664062 A 1.50015 1.50015 0 0 0 33 8.0039062 L 15 8.0039062 z M 15.722656 11.003906 L 21.414062 11.003906 L 14.787109 20.117188 A 1.50015 1.50015 0 0 0 14.580078 20.5 L 8.1210938 20.5 L 15.722656 11.003906 z M 26.585938 11.003906 L 32.279297 11.003906 L 39.878906 20.5 L 33.419922 20.5 A 1.50015 1.50015 0 0 0 33.212891 20.117188 L 26.585938 11.003906 z M 24 12.550781 L 29.78125 20.5 L 18.21875 20.5 L 24 12.550781 z M 8.4941406 23.5 L 15.199219 23.5 L 20.294922 35.921875 L 8.4941406 23.5 z M 18.443359 23.5 L 29.556641 23.5 L 24 37.046875 L 18.443359 23.5 z M 32.800781 23.5 L 39.505859 23.5 L 27.705078 35.921875 L 32.800781 23.5 z"/></svg>