<svg width="30" height="30" viewBox="0 0 30 30" fill="none" xmlns="http://www.w3.org/2000/svg">
<g clip-path="url(#clip0_9479_4832)">
<path d="M22.0313 15C22.0313 13.6094 21.6189 12.2499 20.8463 11.0936C20.0737 9.93737 18.9755 9.03615 17.6907 8.50398C16.406 7.9718 14.9922 7.83255 13.6283 8.10386C12.2643 8.37516 11.0115 9.04482 10.0282 10.0282C9.04482 11.0115 8.37516 12.2643 8.10386 13.6283C7.83255 14.9922 7.9718 16.406 8.50398 17.6907C9.03615 18.9755 9.93737 20.0737 11.0936 20.8463C12.2499 21.6189 13.6094 22.0313 15 22.0313C16.8642 22.0291 18.6514 21.2877 19.9695 19.9695C21.2877 18.6514 22.0291 16.8642 22.0313 15ZM8.90625 15C8.90625 13.7948 9.26365 12.6166 9.93323 11.6145C10.6028 10.6124 11.5545 9.83133 12.668 9.37011C13.7815 8.90889 15.0068 8.78821 16.1888 9.02334C17.3709 9.25847 18.4567 9.83884 19.3089 10.6911C20.1612 11.5433 20.7415 12.6291 20.9767 13.8112C21.2118 14.9932 21.0911 16.2185 20.6299 17.332C20.1687 18.4455 19.3876 19.3972 18.3855 20.0668C17.3834 20.7364 16.2052 21.0938 15 21.0938C13.3844 21.0919 11.8355 20.4493 10.6931 19.3069C9.55073 18.1645 8.90811 16.6156 8.90625 15Z" fill="white"/>
<path d="M18.0469 13.8281H18.9844V18.0469H18.0469V13.8281Z" fill="white"/>
<path d="M15.7031 15.2344H16.6406V18.0469H15.7031V15.2344Z" fill="white"/>
<path d="M13.3594 14.2969H14.2969V18.0469H13.3594V14.2969Z" fill="white"/>
<path d="M11.0156 15.7031H11.9531V18.0469H11.0156V15.7031Z" fill="white"/>
<path d="M13.8413 12.9764L15.9305 14.2298C16.0066 14.2756 16.0942 14.2988 16.183 14.2967C16.2718 14.2946 16.3582 14.2674 16.4321 14.2181L19.2446 12.3431L18.7242 11.5631L16.1588 13.2736L14.0696 12.0201C13.9934 11.9744 13.9059 11.9512 13.8171 11.9533C13.7283 11.9553 13.6419 11.9826 13.568 12.0319L10.7555 13.9069L11.2758 14.6869L13.8413 12.9764Z" fill="white"/>
<path d="M0.46875 0.46875H1.40625V1.40625H0.46875V0.46875Z" fill="white"/>
<path d="M2.34375 0.46875H3.28125V1.40625H2.34375V0.46875Z" fill="white"/>
<path d="M4.21875 0.46875H5.15625V1.40625H4.21875V0.46875Z" fill="white"/>
<path d="M6.09375 0.46875H7.03125V1.40625H6.09375V0.46875Z" fill="white"/>
<path d="M22.9688 28.5938H23.9062V29.5312H22.9688V28.5938Z" fill="white"/>
<path d="M24.8438 28.5938H25.7812V29.5312H24.8438V28.5938Z" fill="white"/>
<path d="M26.7188 28.5938H27.6562V29.5312H26.7188V28.5938Z" fill="white"/>
<path d="M28.5938 28.5938H29.5312V29.5312H28.5938V28.5938Z" fill="white"/>
<path d="M25.2694 6.69422C25.273 6.70268 25.279 6.70989 25.2867 6.71496C25.2943 6.72003 25.3033 6.72273 25.3125 6.72273C25.3217 6.72273 25.3307 6.72003 25.3384 6.71496C25.346 6.70989 25.352 6.70268 25.3556 6.69422C25.4719 6.34626 25.6675 6.03009 25.9269 5.77066C26.1863 5.51124 26.5025 5.31567 26.8505 5.19938C26.8589 5.19578 26.8661 5.18977 26.8712 5.1821C26.8763 5.17443 26.879 5.16545 26.879 5.15626C26.879 5.14706 26.8763 5.13808 26.8712 5.13041C26.8661 5.12274 26.8589 5.11673 26.8505 5.11313C26.5025 4.99685 26.1863 4.80127 25.9269 4.54185C25.6675 4.28242 25.4719 3.96625 25.3556 3.61829C25.352 3.60983 25.346 3.60262 25.3384 3.59755C25.3307 3.59248 25.3217 3.58978 25.3125 3.58978C25.3033 3.58978 25.2943 3.59248 25.2867 3.59755C25.279 3.60262 25.273 3.60983 25.2694 3.61829C25.1531 3.96625 24.9575 4.28242 24.6981 4.54185C24.4387 4.80127 24.1225 4.99685 23.7745 5.11313C23.7661 5.11673 23.7589 5.12274 23.7538 5.13041C23.7487 5.13808 23.746 5.14706 23.746 5.15626C23.746 5.16545 23.7487 5.17443 23.7538 5.1821C23.7589 5.18977 23.7661 5.19578 23.7745 5.19938C24.1225 5.31567 24.4387 5.51124 24.6981 5.77066C24.9575 6.03009 25.1531 6.34626 25.2694 6.69422Z" fill="white"/>
<path d="M4.73065 23.633C4.72705 23.6245 4.72104 23.6173 4.71337 23.6123C4.70571 23.6072 4.69672 23.6045 4.68753 23.6045C4.67834 23.6045 4.66935 23.6072 4.66168 23.6123C4.65401 23.6173 4.648 23.6245 4.6444 23.633C4.55181 23.9038 4.39844 24.1499 4.19604 24.3523C3.99364 24.5547 3.74759 24.7081 3.47675 24.8007C3.46829 24.8043 3.46108 24.8103 3.45601 24.8179C3.45094 24.8256 3.44824 24.8346 3.44824 24.8438C3.44824 24.853 3.45094 24.862 3.45601 24.8696C3.46108 24.8773 3.46829 24.8833 3.47675 24.8869C3.74759 24.9795 3.99364 25.1329 4.19604 25.3353C4.39844 25.5377 4.55181 25.7837 4.6444 26.0546C4.648 26.063 4.65401 26.0702 4.66168 26.0753C4.66935 26.0804 4.67834 26.0831 4.68753 26.0831C4.69672 26.0831 4.70571 26.0804 4.71337 26.0753C4.72104 26.0702 4.72705 26.063 4.73065 26.0546C4.82324 25.7837 4.97662 25.5377 5.17902 25.3353C5.38141 25.1329 5.62746 24.9795 5.89831 24.8869C5.90676 24.8833 5.91397 24.8773 5.91904 24.8696C5.92411 24.862 5.92681 24.853 5.92681 24.8438C5.92681 24.8346 5.92411 24.8256 5.91904 24.8179C5.91397 24.8103 5.90676 24.8043 5.89831 24.8007C5.62746 24.7081 5.38141 24.5547 5.17902 24.3523C4.97662 24.1499 4.82324 23.9038 4.73065 23.633Z" fill="white"/>
<path d="M15 23.9062C11.7141 23.9062 8.17219 22.41 4.75734 19.5797C3.20781 18.3027 1.8013 16.8615 0.5625 15.2812C0.501646 15.2001 0.46875 15.1014 0.46875 15C0.46875 14.8986 0.501646 14.7999 0.5625 14.7188C1.8014 13.1382 3.20806 11.6966 4.75781 10.4194C8.17219 7.59 11.7141 6.09375 15 6.09375C18.2859 6.09375 21.8278 7.59 25.2427 10.4203C26.7922 11.6973 28.1987 13.1385 29.4375 14.7188C29.4984 14.7999 29.5312 14.8986 29.5312 15C29.5312 15.1014 29.4984 15.2001 29.4375 15.2812C28.1986 16.8618 26.7919 18.3034 25.2422 19.5806C21.8278 22.41 18.2859 23.9062 15 23.9062ZM1.53422 15C2.70328 16.4447 8.35266 22.9688 15 22.9688C21.6473 22.9688 27.2967 16.4447 28.4658 15C27.2967 13.5553 21.6473 7.03125 15 7.03125C8.35266 7.03125 2.70328 13.5553 1.53422 15Z" fill="white"/>
</g>
<defs>
<clipPath id="clip0_9479_4832">
<rect width="30" height="30" fill="white"/>
</clipPath>
</defs>
</svg>
