<svg width="29" height="29" viewBox="0 0 29 29" fill="none" xmlns="http://www.w3.org/2000/svg">
<rect width="29" height="29" fill="#E05E28"/>
<ellipse cx="15" cy="14" rx="10" ry="9" fill="white"/>
<path d="M3.96085 15.0017C3.9613 21.0898 8.91355 26.0414 15.0017 26.0409C21.0898 26.0404 26.0413 21.0882 26.0409 15.0001C26.0404 8.91195 21.0882 3.96045 15 3.9609C8.91191 3.96135 3.9604 8.91359 3.96085 15.0017ZM15.4804 9.24086L15.4812 19.6021L18.5016 16.5813C18.6891 16.3938 18.9928 16.3937 19.1803 16.5812C19.2741 16.675 19.321 16.7968 19.321 16.9206C19.321 17.0443 19.2741 17.1662 19.1804 17.26L15.3407 21.1002C15.2957 21.1453 15.2432 21.179 15.1851 21.2034C15.0669 21.2521 14.9357 21.2522 14.8176 21.2034C14.7594 21.179 14.7069 21.1453 14.6619 21.1003L10.8216 17.2606C10.6341 17.0731 10.6341 16.7693 10.8216 16.5818C11.0091 16.3943 11.3128 16.3943 11.5003 16.5818L14.5212 19.6022L14.5204 9.24093C14.5204 8.97468 14.736 8.76092 15.0004 8.7609C15.2648 8.76088 15.4804 8.97461 15.4804 9.24086Z" fill="#E05E28"/>
</svg>
