<svg width="32" height="32" viewBox="0 0 32 32" fill="none" xmlns="http://www.w3.org/2000/svg">
<g clip-path="url(#clip0_8112_10562)">
<path d="M27.2 0H4.8C2.14903 0 0 2.14903 0 4.8V27.2C0 29.851 2.14903 32 4.8 32H27.2C29.851 32 32 29.851 32 27.2V4.8C32 2.14903 29.851 0 27.2 0Z" fill="url(#paint0_linear_8112_10562)"/>
<path d="M20.8 16.1521C21.7325 15.7355 22.5124 15.0394 23.032 14.1601C23.5589 13.2834 23.8356 12.2791 23.832 11.2561C23.8554 10.5351 23.7312 9.81695 23.467 9.14559C23.203 8.47431 22.8044 7.86398 22.296 7.35217C21.693 6.80107 20.9842 6.37854 20.2126 6.11033C19.441 5.84213 18.6228 5.73387 17.808 5.79217H14.288V4.19217H10.128V5.79217H7.728L0 13.4481V27.2001C0 28.4732 0.505713 29.6941 1.40589 30.5943C2.30606 31.4945 3.52696 32.0001 4.8 32.0001H14.608L24.352 22.2641L20.8 16.1521Z" fill="url(#paint1_linear_8112_10562)"/>
<path d="M20.8002 16.1521C21.7326 15.7355 22.5125 15.0394 23.0322 14.1601C23.5591 13.2834 23.8357 12.2791 23.8322 11.2561C23.8555 10.5351 23.7313 9.81695 23.4672 9.14559C23.2031 8.47431 22.8046 7.86398 22.2962 7.35217C21.6929 6.80146 20.9839 6.37918 20.2124 6.111C19.4409 5.84282 18.6229 5.73435 17.8082 5.79217H14.2882V4.19217H10.1282V5.79217H7.72815V9.60015H10.1282V13.1681H7.72815V16.8001H10.1282V22.2641H14.2882V16.8001H16.7362L19.6322 22.2641H24.3842L20.8002 16.1521ZM19.3122 12.2961C19.1511 12.5999 18.9003 12.8466 18.5939 13.0026C18.2875 13.1587 17.9405 13.2165 17.6002 13.1681H14.2482V9.60015H17.7202C18.0416 9.55055 18.3705 9.60534 18.6585 9.75655C18.9465 9.90774 19.1784 10.1474 19.3202 10.4401C19.4753 10.7254 19.5553 11.0455 19.5525 11.3702C19.5497 11.6949 19.4642 12.0136 19.3042 12.2961H19.3122Z" fill="white"/>
<path d="M7.20007 26.856C7.0997 26.7735 6.9861 26.7086 6.86407 26.664C6.74311 26.6094 6.6172 26.5666 6.48807 26.536L6.16007 26.456L5.97607 26.4C5.90902 26.3746 5.8447 26.3424 5.78407 26.304C5.72748 26.2716 5.68055 26.2246 5.64807 26.168C5.61268 26.1105 5.59592 26.0434 5.60007 25.976C5.59834 25.893 5.6236 25.8115 5.67207 25.744C5.73343 25.6779 5.81048 25.6284 5.89607 25.6C6.00275 25.5574 6.11735 25.5384 6.23207 25.544C6.39267 25.5373 6.55158 25.5791 6.68807 25.664C6.74543 25.7042 6.79314 25.7566 6.82773 25.8175C6.86232 25.8784 6.88293 25.9462 6.88807 26.016H7.49607C7.49846 25.8302 7.4425 25.6484 7.33607 25.496C7.22059 25.3391 7.06618 25.215 6.88807 25.136C6.68439 25.0454 6.46294 25.0016 6.24007 25.008C6.01471 25.0026 5.79085 25.0462 5.58407 25.136C5.40363 25.2148 5.24656 25.3388 5.12807 25.496C5.01442 25.6543 4.95543 25.8453 4.96007 26.04C4.95718 26.1518 4.97775 26.263 5.02047 26.3663C5.06319 26.4697 5.1271 26.5629 5.20807 26.64C5.40346 26.8066 5.63711 26.922 5.88807 26.976L6.28807 27.08C6.39955 27.1075 6.50911 27.1423 6.61607 27.184C6.69931 27.2165 6.77343 27.2686 6.83207 27.336C6.88727 27.3972 6.91604 27.4778 6.91208 27.56C6.91208 27.6553 6.88119 27.7478 6.82407 27.824C6.75649 27.8996 6.67131 27.9573 6.57607 27.992C6.46215 28.0393 6.3393 28.0611 6.21607 28.056C6.09375 28.0582 5.97196 28.0393 5.85607 28C5.75299 27.956 5.6643 27.8839 5.60007 27.792C5.53132 27.7052 5.49208 27.5987 5.48807 27.488H4.86407C4.86623 27.6991 4.9302 27.905 5.04807 28.08C5.16276 28.2461 5.32429 28.3742 5.51207 28.448C5.73805 28.5394 5.98045 28.5829 6.22407 28.576C6.46833 28.5813 6.71095 28.535 6.93607 28.44C7.12059 28.3682 7.2794 28.2429 7.39207 28.08C7.49597 27.921 7.54899 27.734 7.54408 27.544C7.54852 27.4063 7.52114 27.2694 7.46407 27.144C7.39537 27.032 7.30574 26.9342 7.20007 26.856Z" fill="white"/>
<path d="M10.92 25.2C10.6778 25.0569 10.4014 24.9822 10.12 24.984C9.83904 24.9845 9.56312 25.0591 9.32 25.2C9.07496 25.3424 8.87744 25.5539 8.752 25.808C8.61 26.111 8.53632 26.4415 8.53632 26.776C8.53632 27.1107 8.61 27.4411 8.752 27.744C8.87952 27.9988 9.0764 28.2123 9.32 28.36C9.5648 28.4959 9.84008 28.5675 10.12 28.568C10.4003 28.5699 10.6762 28.4983 10.92 28.36C11.166 28.2128 11.3656 27.9993 11.496 27.744C11.6329 27.4397 11.7037 27.1098 11.7037 26.776C11.7037 26.4423 11.6329 26.1124 11.496 25.808C11.3677 25.5533 11.1674 25.3419 10.92 25.2ZM10.92 27.448C10.8513 27.6167 10.7344 27.7614 10.584 27.864C10.431 27.9533 10.2571 28.0003 10.08 28.0003C9.90288 28.0003 9.72896 27.9533 9.576 27.864C9.42512 27.7599 9.306 27.6159 9.232 27.448C9.07224 27.0143 9.07224 26.5378 9.232 26.104C9.306 25.9363 9.42512 25.7923 9.576 25.688C9.72896 25.5987 9.90288 25.5518 10.08 25.5518C10.2571 25.5518 10.431 25.5987 10.584 25.688C10.7344 25.7907 10.8513 25.9354 10.92 26.104C11.0911 26.5357 11.0911 27.0163 10.92 27.448Z" fill="white"/>
<path d="M13.416 25.032H12.784V28.52H14.96V27.992H13.416V25.032Z" fill="white"/>
<path d="M17.1199 25.032L15.8879 28.52H16.5679L16.8559 27.664H18.1679L18.4559 28.52H19.1279L17.8959 25.032H17.1199ZM17.0239 27.152L17.4959 25.744L17.9679 27.152H17.0239Z" fill="white"/>
<path d="M22.3118 27.408H22.2798L20.6318 25.032H20.0718V28.52H20.7038V26.144H20.7278L22.3758 28.52H22.9358V25.032H22.3118V27.408Z" fill="white"/>
<path d="M26.4401 28.52H27.1201L25.8881 25.032H25.0881L23.8641 28.52H24.5361L24.8241 27.664H26.1361L26.4401 28.52ZM25.0161 27.152L25.4801 25.744L25.9521 27.152H25.0161Z" fill="white"/>
</g>
<defs>
<linearGradient id="paint0_linear_8112_10562" x1="1.408" y1="30.592" x2="30.592" y2="1.408" gradientUnits="userSpaceOnUse">
<stop stop-color="#FC55E8"/>
<stop offset="1" stop-color="#F5D94E"/>
</linearGradient>
<linearGradient id="paint1_linear_8112_10562" x1="12.176" y1="32.0001" x2="12.176" y2="4.17617" gradientUnits="userSpaceOnUse">
<stop stop-color="#D961C2"/>
<stop offset="1" stop-color="#79ACC6"/>
</linearGradient>
<clipPath id="clip0_8112_10562">
<rect width="32" height="32" fill="white"/>
</clipPath>
</defs>
</svg>
