<svg width="30" height="30" viewBox="0 0 30 30" fill="none" xmlns="http://www.w3.org/2000/svg">
<path d="M5.625 13.0354H7.5V14.8976H5.625V13.0354ZM6.5625 5.58659C6.31386 5.58659 6.0754 5.68469 5.89959 5.85931C5.72377 6.03392 5.625 6.27075 5.625 6.51769C5.625 6.76464 5.72377 7.00146 5.89959 7.17608C6.0754 7.35069 6.31386 7.44879 6.5625 7.44879C6.81114 7.44879 7.0496 7.35069 7.22541 7.17608C7.40123 7.00146 7.5 6.76464 7.5 6.51769C7.5 6.27075 7.40123 6.03392 7.22541 5.85931C7.0496 5.68469 6.81114 5.58659 6.5625 5.58659Z" fill="#DA57FF"/>
<path d="M2.57812 10.2421H10.3125M10.3125 25.1397H4.6875C3.6525 25.1397 2.8125 24.3054 2.8125 23.2775V4.65549C2.8125 3.62756 3.6525 2.7933 4.6875 2.7933H10.3125V25.1397ZM2.57812 17.6909H10.3125H2.57812Z" stroke="#DA57FF" stroke-miterlimit="10"/>
<path d="M13.125 5.58659H15V7.44879H13.125V5.58659ZM6.5625 20.4842C6.31386 20.4842 6.0754 20.5823 5.89959 20.7569C5.72377 20.9315 5.625 21.1683 5.625 21.4153C5.625 21.6622 5.72377 21.899 5.89959 22.0737C6.0754 22.2483 6.31386 22.3464 6.5625 22.3464C6.81114 22.3464 7.0496 22.2483 7.22541 22.0737C7.40123 21.899 7.5 21.6622 7.5 21.4153C7.5 21.1683 7.40123 20.9315 7.22541 20.7569C7.0496 20.5823 6.81114 20.4842 6.5625 20.4842ZM21.5625 20.4842C21.3139 20.4842 21.0754 20.5823 20.8996 20.7569C20.7238 20.9315 20.625 21.1683 20.625 21.4153C20.625 21.6622 20.7238 21.899 20.8996 22.0737C21.0754 22.2483 21.3139 22.3464 21.5625 22.3464C21.8111 22.3464 22.0496 22.2483 22.2254 22.0737C22.4012 21.899 22.5 21.6622 22.5 21.4153C22.5 21.1683 22.4012 20.9315 22.2254 20.7569C22.0496 20.5823 21.8111 20.4842 21.5625 20.4842Z" fill="#DA57FF"/>
<path d="M10.0781 10.2421H17.8125M10.3125 2.7933H17.8125V25.1397H10.3125V2.7933ZM10.0781 17.6909H17.8125H10.0781Z" stroke="#DA57FF" stroke-miterlimit="10"/>
<path d="M13.125 20.4842H15V22.3464H13.125V20.4842ZM20.625 13.0354H22.5V14.8976H20.625V13.0354ZM21.5625 5.58659C21.3139 5.58659 21.0754 5.68469 20.8996 5.85931C20.7238 6.03392 20.625 6.27075 20.625 6.51769C20.625 6.76463 20.7238 7.00146 20.8996 7.17608C21.0754 7.35069 21.3139 7.44879 21.5625 7.44879C21.8111 7.44879 22.0496 7.35069 22.2254 7.17608C22.4012 7.00146 22.5 6.76463 22.5 6.51769C22.5 6.27075 22.4012 6.03392 22.2254 5.85931C22.0496 5.68469 21.8111 5.58659 21.5625 5.58659ZM14.0625 13.0354C13.8139 13.0354 13.5754 13.1335 13.3996 13.3081C13.2238 13.4827 13.125 13.7195 13.125 13.9665C13.125 14.2134 13.2238 14.4503 13.3996 14.6249C13.5754 14.7995 13.8139 14.8976 14.0625 14.8976C14.3111 14.8976 14.5496 14.7995 14.7254 14.6249C14.9012 14.4503 15 14.2134 15 13.9665C15 13.7195 14.9012 13.4827 14.7254 13.3081C14.5496 13.1335 14.3111 13.0354 14.0625 13.0354Z" fill="#DA57FF"/>
<path d="M17.5781 10.2421H25.3125M23.4375 25.1397H17.8125V2.7933H23.4375C24.4725 2.7933 25.3125 3.62756 25.3125 4.65549V23.2775C25.3125 24.3054 24.4725 25.1397 23.4375 25.1397ZM17.5781 17.6909H25.3125H17.5781Z" stroke="#DA57FF" stroke-miterlimit="10"/>
</svg>
