<svg width="22" height="23" viewBox="0 0 22 23" fill="none" xmlns="http://www.w3.org/2000/svg">
<g clip-path="url(#clip0_7223_126)">
<path d="M18.7782 3.38043C16.7006 1.31699 13.9383 0.180634 11 0.180634C8.06172 0.180634 5.29937 1.31699 3.22179 3.38043C1.14417 5.44382 0 8.18731 0 11.1055C0 14.0237 1.14417 16.7672 3.22179 18.8307C5.29941 20.8941 8.06177 22.0305 11 22.0305C15.374 22.0305 19.3322 19.4581 21.084 15.4771C21.1553 15.3151 21.0808 15.1264 20.9177 15.0556C20.7546 14.9848 20.5646 15.0587 20.4934 15.2207C18.8442 18.9686 15.1178 21.3903 11 21.3903C8.23391 21.3903 5.63338 20.3205 3.67754 18.378C1.7217 16.4355 0.644556 13.8527 0.644556 11.1055C0.644556 8.35832 1.7217 5.77559 3.67754 3.83306C5.63342 1.89057 8.23391 0.820789 11 0.820789C13.7661 0.820789 16.3666 1.89057 18.3225 3.83306C20.2783 5.77559 21.3554 8.35832 21.3554 11.1055C21.3554 12.1104 21.2101 13.1029 20.9233 14.0554C20.8723 14.2248 20.9693 14.4031 21.1398 14.4538C21.3102 14.5044 21.4899 14.4082 21.5409 14.2388C21.8455 13.2267 22 12.1725 22 11.1055C22 8.18731 20.8558 5.44382 18.7782 3.38043V3.38043Z" fill="black"/>
<path d="M5.05766 5.57334C4.92317 5.45764 4.71961 5.47211 4.60308 5.60569C3.27237 7.13122 2.53955 9.08447 2.53955 11.1055C2.53955 15.7388 6.33492 19.5082 11 19.5082C15.6651 19.5082 19.4604 15.7388 19.4604 11.1055C19.4604 6.47229 15.6651 2.70284 11 2.70284C9.0072 2.70284 7.07164 3.40437 5.54993 4.67815C5.41384 4.79205 5.39648 4.994 5.51122 5.12916C5.62595 5.26432 5.82928 5.28156 5.96533 5.16761C7.37098 3.99101 9.15898 3.343 11 3.343C15.3097 3.343 18.8159 6.82527 18.8159 11.1055C18.8159 15.3858 15.3097 18.868 11 18.868C6.69033 18.868 3.18411 15.3858 3.18411 11.1055C3.18411 9.2384 3.86102 7.43402 5.09019 6.02486C5.20677 5.89129 5.1922 5.68913 5.05766 5.57334V5.57334Z" fill="black"/>
<path d="M14.2096 6.57677V4.45508C14.2096 4.27831 14.0653 4.135 13.8873 4.135C13.7093 4.135 13.565 4.27831 13.565 4.45508V6.57677C13.565 6.75354 13.7093 6.89685 13.8873 6.89685C14.0653 6.89685 14.2096 6.75354 14.2096 6.57677Z" fill="black"/>
<path d="M11.7219 4.135C11.1461 4.135 10.6778 4.60018 10.6778 5.17197V5.85984C10.6778 6.43162 11.1461 6.8968 11.7219 6.8968C12.2976 6.8968 12.766 6.43162 12.766 5.85984V5.17197C12.7659 4.60018 12.2976 4.135 11.7219 4.135V4.135ZM12.1214 5.85984C12.1214 6.07864 11.9421 6.25665 11.7218 6.25665C11.5015 6.25665 11.3223 6.07864 11.3223 5.85984V5.17197C11.3223 4.95316 11.5015 4.77516 11.7218 4.77516C11.9421 4.77516 12.1214 4.95316 12.1214 5.17197V5.85984Z" fill="black"/>
<path d="M8.83455 4.135C8.25883 4.135 7.79045 4.60018 7.79045 5.17197V5.85984C7.79045 6.43162 8.25883 6.8968 8.83455 6.8968C9.41027 6.8968 9.87864 6.43162 9.87864 5.85984V5.17197C9.87864 4.60018 9.41027 4.135 8.83455 4.135V4.135ZM9.23409 5.85984C9.23409 6.07864 9.05486 6.25665 8.83455 6.25665C8.61424 6.25665 8.43501 6.07864 8.43501 5.85984V5.17197C8.43501 4.95316 8.61424 4.77516 8.83455 4.77516C9.05486 4.77516 9.23409 4.95316 9.23409 5.17197V5.85984Z" fill="black"/>
<path d="M7.34373 15.1016V17.2233C7.34373 17.4 7.48803 17.5434 7.66601 17.5434C7.84399 17.5434 7.98829 17.4 7.98829 17.2233V15.1016C7.98829 14.9249 7.84399 14.7816 7.66601 14.7816C7.48803 14.7816 7.34373 14.9249 7.34373 15.1016Z" fill="black"/>
<path d="M9.83146 14.7816C9.25574 14.7816 8.78736 15.2467 8.78736 15.8185V16.5064C8.78736 17.0782 9.25574 17.5434 9.83146 17.5434C10.4072 17.5434 10.8756 17.0782 10.8756 16.5064V15.8185C10.8756 15.2467 10.4072 14.7816 9.83146 14.7816ZM10.231 16.5064C10.231 16.7252 10.0518 16.9032 9.8315 16.9032C9.61119 16.9032 9.43196 16.7252 9.43196 16.5064V15.8185C9.43196 15.5997 9.61119 15.4217 9.8315 15.4217C10.0518 15.4217 10.231 15.5997 10.231 15.8185V16.5064Z" fill="black"/>
<path d="M12.7188 14.7816C12.1431 14.7816 11.6747 15.2467 11.6747 15.8185V16.5064C11.6747 17.0782 12.1431 17.5434 12.7188 17.5434C13.2945 17.5434 13.7629 17.0782 13.7629 16.5064V15.8185C13.7629 15.2467 13.2945 14.7816 12.7188 14.7816ZM13.1183 16.5064C13.1183 16.7252 12.9391 16.9032 12.7188 16.9032C12.4985 16.9032 12.3192 16.7252 12.3192 16.5064V15.8185C12.3192 15.5997 12.4985 15.4217 12.7188 15.4217C12.9391 15.4217 13.1183 15.5997 13.1183 15.8185V16.5064Z" fill="black"/>
<path d="M14.5619 15.1016V17.2233C14.5619 17.4 14.7062 17.5434 14.8842 17.5434C15.0622 17.5434 15.2065 17.4 15.2065 17.2233V15.1016C15.2065 14.9249 15.0622 14.7816 14.8842 14.7816C14.7062 14.7816 14.5619 14.9249 14.5619 15.1016Z" fill="black"/>
<path d="M17.0969 10.1799V8.05821C17.0969 7.88145 16.9526 7.73814 16.7746 7.73814C16.5966 7.73814 16.4523 7.88145 16.4523 8.05821V10.1799C16.4523 10.3567 16.5966 10.5 16.7746 10.5C16.9526 10.5 17.0969 10.3567 17.0969 10.1799Z" fill="black"/>
<path d="M13.565 9.46301C13.565 10.0348 14.0334 10.5 14.6091 10.5C15.1848 10.5 15.6532 10.0348 15.6532 9.46301V8.7751C15.6532 8.20332 15.1848 7.73814 14.6091 7.73814C14.0334 7.73814 13.565 8.20332 13.565 8.7751V9.46301ZM14.2096 8.7751C14.2096 8.5563 14.3888 8.37829 14.6091 8.37829C14.8294 8.37829 15.0087 8.5563 15.0087 8.7751V9.46301C15.0087 9.68182 14.8294 9.85982 14.6091 9.85982C14.3888 9.85982 14.2096 9.68182 14.2096 9.46301V8.7751Z" fill="black"/>
<path d="M12.4436 7.73814C12.2657 7.73814 12.1214 7.88145 12.1214 8.05821V10.1799C12.1214 10.3567 12.2657 10.5 12.4436 10.5C12.6216 10.5 12.7659 10.3567 12.7659 10.1799V8.05821C12.7659 7.88145 12.6217 7.73814 12.4436 7.73814Z" fill="black"/>
<path d="M10.6777 10.1799C10.6777 10.3567 10.822 10.5 11 10.5C11.178 10.5 11.3223 10.3567 11.3223 10.1799V8.05821C11.3223 7.88145 11.178 7.73814 11 7.73814C10.822 7.73814 10.6777 7.88145 10.6777 8.05821V10.1799Z" fill="black"/>
<path d="M9.55637 10.5C9.73435 10.5 9.87864 10.3567 9.87864 10.1799V8.05821C9.87864 7.88145 9.73435 7.73814 9.55637 7.73814C9.37838 7.73814 9.23409 7.88145 9.23409 8.05821V10.1799C9.23409 10.3567 9.37838 10.5 9.55637 10.5Z" fill="black"/>
<path d="M6.34678 8.7751V9.46301C6.34678 10.0348 6.81515 10.5 7.39087 10.5C7.96659 10.5 8.43497 10.0348 8.43497 9.46301V8.7751C8.43497 8.20332 7.96659 7.73814 7.39087 7.73814C6.81515 7.73814 6.34678 8.20332 6.34678 8.7751ZM7.79041 8.7751V9.46301C7.79041 9.68182 7.61118 9.85982 7.39087 9.85982C7.17056 9.85982 6.99133 9.68182 6.99133 9.46301V8.7751C6.99133 8.5563 7.17056 8.37829 7.39087 8.37829C7.61118 8.37829 7.79041 8.5563 7.79041 8.7751Z" fill="black"/>
<path d="M5.22542 7.73814C5.04744 7.73814 4.90314 7.88145 4.90314 8.05821V10.1799C4.90314 10.3567 5.04744 10.5 5.22542 10.5C5.4034 10.5 5.5477 10.3567 5.5477 10.1799V8.05821C5.5477 7.88145 5.4034 7.73814 5.22542 7.73814V7.73814Z" fill="black"/>
<path d="M15.0087 12.3783V13.0661C15.0087 13.6379 15.477 14.1031 16.0528 14.1031C16.6285 14.1031 17.0969 13.6379 17.0969 13.0661V12.3783C17.0969 11.8065 16.6285 11.3413 16.0528 11.3413C15.477 11.3413 15.0087 11.8065 15.0087 12.3783ZM16.4523 12.3783V13.0661C16.4523 13.2849 16.2731 13.463 16.0528 13.463C15.8325 13.463 15.6532 13.2849 15.6532 13.0661V12.3783C15.6532 12.1595 15.8325 11.9815 16.0528 11.9815C16.2731 11.9815 16.4523 12.1595 16.4523 12.3783Z" fill="black"/>
<path d="M13.565 13.783C13.565 13.9598 13.7093 14.1031 13.8873 14.1031C14.0653 14.1031 14.2096 13.9598 14.2096 13.783V11.6614C14.2096 11.4846 14.0653 11.3413 13.8873 11.3413C13.7093 11.3413 13.565 11.4846 13.565 11.6614V13.783Z" fill="black"/>
<path d="M10.6777 13.0661C10.6777 13.6379 11.1461 14.1031 11.7218 14.1031C12.2975 14.1031 12.7659 13.6379 12.7659 13.0661V12.3783C12.7659 11.8065 12.2975 11.3413 11.7218 11.3413C11.1461 11.3413 10.6777 11.8065 10.6777 12.3783V13.0661ZM11.3223 12.3783C11.3223 12.1595 11.5015 11.9815 11.7218 11.9815C11.9421 11.9815 12.1214 12.1595 12.1214 12.3783V13.0661C12.1214 13.2849 11.9421 13.463 11.7218 13.463C11.5015 13.463 11.3223 13.2849 11.3223 13.0661V12.3783Z" fill="black"/>
<path d="M9.23409 13.783C9.23409 13.9598 9.37838 14.1031 9.55637 14.1031C9.73435 14.1031 9.87864 13.9598 9.87864 13.783V11.6614C9.87864 11.4846 9.73435 11.3413 9.55637 11.3413C9.37838 11.3413 9.23409 11.4846 9.23409 11.6614V13.783Z" fill="black"/>
<path d="M8.43497 13.783V11.6614C8.43497 11.4846 8.29067 11.3413 8.11269 11.3413C7.9347 11.3413 7.79041 11.4846 7.79041 11.6614V13.783C7.79041 13.9598 7.9347 14.1031 8.11269 14.1031C8.29067 14.1031 8.43497 13.9599 8.43497 13.783V13.783Z" fill="black"/>
<path d="M4.90314 12.3783V13.0661C4.90314 13.6379 5.37152 14.1031 5.94724 14.1031C6.52295 14.1031 6.99133 13.6379 6.99133 13.0661V12.3783C6.99133 11.8065 6.52295 11.3413 5.94724 11.3413C5.37152 11.3413 4.90314 11.8065 4.90314 12.3783V12.3783ZM6.34678 12.3783V13.0661C6.34678 13.2849 6.16755 13.463 5.94724 13.463C5.72693 13.463 5.5477 13.2849 5.5477 13.0661V12.3783C5.5477 12.1595 5.72693 11.9815 5.94724 11.9815C6.16755 11.9815 6.34678 12.1595 6.34678 12.3783Z" fill="black"/>
</g>
<defs>
<clipPath id="clip0_7223_126">
<rect width="22" height="21.8498" fill="white" transform="translate(0 0.180634)"/>
</clipPath>
</defs>
</svg>
