<svg width="30" height="30" viewBox="0 0 30 30" fill="none" xmlns="http://www.w3.org/2000/svg">
<path d="M25.6067 4.39335C22.7735 1.56023 19.0067 0 15 0C10.9932 0 7.2264 1.56023 4.39335 4.39335C1.56023 7.2264 0 10.9932 0 15C0 19.0067 1.56023 22.7735 4.39335 25.6067C7.22646 28.4397 10.9933 30 15 30C20.9646 30 26.3621 26.4682 28.7509 21.0022C28.8481 20.7798 28.7465 20.5207 28.5241 20.4235C28.3017 20.3263 28.0426 20.4278 27.9455 20.6502C25.6965 25.796 20.6152 29.121 15 29.121C11.228 29.121 7.68187 27.6522 5.01482 24.9851C2.34776 22.3181 0.878939 18.7719 0.878939 15C0.878939 11.228 2.34776 7.68193 5.01482 5.01482C7.68193 2.34776 11.228 0.878939 15 0.878939C18.7719 0.878939 22.3181 2.34776 24.9851 5.01482C27.6522 7.68193 29.121 11.228 29.121 15C29.121 16.3796 28.9228 17.7423 28.5318 19.0502C28.4622 19.2827 28.5944 19.5276 28.827 19.5972C29.0594 19.6666 29.3043 19.5345 29.3739 19.302C29.7893 17.9123 29.9999 16.4649 29.9999 15C29.9999 10.9932 28.4397 7.2264 25.6067 4.39335Z" fill="white"/>
<path d="M6.8968 7.40423C6.71339 7.24538 6.43582 7.26524 6.27691 7.44865C4.46231 9.54322 3.46302 12.225 3.46302 15C3.46302 21.3614 8.6385 26.5369 15 26.5369C21.3614 26.5369 26.5369 21.3614 26.5369 15C26.5369 8.6385 21.3615 3.46301 15 3.46301C12.2825 3.46301 9.64313 4.42621 7.56807 6.17513C7.3825 6.33152 7.35883 6.60879 7.51528 6.79437C7.67173 6.97994 7.949 7.00361 8.13452 6.84716C10.0513 5.23167 12.4895 4.34195 15 4.34195C20.8768 4.34195 25.658 9.12315 25.658 15C25.658 20.8768 20.8768 25.658 15 25.658C9.12315 25.658 4.34196 20.8768 4.34196 15C4.34196 12.4364 5.26502 9.95896 6.94115 8.02418C7.10012 7.84077 7.08026 7.5632 6.8968 7.40423Z" fill="white"/>
<path d="M19.3767 8.78195V5.86885C19.3767 5.62615 19.1799 5.42938 18.9372 5.42938C18.6945 5.42938 18.4977 5.62615 18.4977 5.86885V8.78195C18.4977 9.02465 18.6945 9.22142 18.9372 9.22142C19.1799 9.22142 19.3767 9.02465 19.3767 8.78195Z" fill="white"/>
<path d="M15.9843 5.42938C15.1993 5.42938 14.5606 6.06808 14.5606 6.85315V7.7976C14.5606 8.58266 15.1993 9.22136 15.9843 9.22136C16.7694 9.22136 17.4081 8.58266 17.4081 7.7976V6.85315C17.408 6.06808 16.7694 5.42938 15.9843 5.42938ZM16.5291 7.7976C16.5291 8.09802 16.2847 8.34242 15.9843 8.34242C15.6838 8.34242 15.4394 8.09802 15.4394 7.7976V6.85315C15.4394 6.55273 15.6838 6.30832 15.9843 6.30832C16.2847 6.30832 16.5291 6.55273 16.5291 6.85315V7.7976Z" fill="white"/>
<path d="M12.0471 5.42938C11.262 5.42938 10.6233 6.06808 10.6233 6.85315V7.7976C10.6233 8.58266 11.262 9.22136 12.0471 9.22136C12.8322 9.22136 13.4708 8.58266 13.4708 7.7976V6.85315C13.4708 6.06808 12.8322 5.42938 12.0471 5.42938ZM12.5919 7.7976C12.5919 8.09802 12.3475 8.34242 12.0471 8.34242C11.7467 8.34242 11.5023 8.09802 11.5023 7.7976V6.85315C11.5023 6.55273 11.7467 6.30832 12.0471 6.30832C12.3475 6.30832 12.5919 6.55273 12.5919 6.85315V7.7976Z" fill="white"/>
<path d="M10.0142 20.4866V23.3997C10.0142 23.6424 10.2109 23.8392 10.4536 23.8392C10.6963 23.8392 10.8931 23.6424 10.8931 23.3997V20.4866C10.8931 20.2439 10.6963 20.0472 10.4536 20.0472C10.2109 20.0472 10.0142 20.2439 10.0142 20.4866Z" fill="white"/>
<path d="M13.4065 20.0472C12.6214 20.0472 11.9828 20.6859 11.9828 21.4709V22.4155C11.9828 23.2005 12.6214 23.8392 13.4065 23.8392C14.1916 23.8392 14.8303 23.2005 14.8303 22.4155V21.4709C14.8303 20.6859 14.1916 20.0472 13.4065 20.0472ZM13.9514 22.4154C13.9514 22.7158 13.707 22.9602 13.4066 22.9602C13.1062 22.9602 12.8618 22.7158 12.8618 22.4154V21.4709C12.8618 21.1705 13.1062 20.9261 13.4066 20.9261C13.707 20.9261 13.9514 21.1705 13.9514 21.4709V22.4154Z" fill="white"/>
<path d="M17.3438 20.0472C16.5587 20.0472 15.92 20.6859 15.92 21.4709V22.4155C15.92 23.2005 16.5587 23.8392 17.3438 23.8392C18.1288 23.8392 18.7675 23.2005 18.7675 22.4155V21.4709C18.7675 20.6859 18.1288 20.0472 17.3438 20.0472ZM17.8886 22.4154C17.8886 22.7158 17.6442 22.9602 17.3438 22.9602C17.0433 22.9602 16.7989 22.7158 16.7989 22.4154V21.4709C16.7989 21.1705 17.0433 20.9261 17.3438 20.9261C17.6442 20.9261 17.8886 21.1705 17.8886 21.4709V22.4154Z" fill="white"/>
<path d="M19.8572 20.4866V23.3997C19.8572 23.6424 20.0539 23.8392 20.2966 23.8392C20.5393 23.8392 20.7361 23.6424 20.7361 23.3997V20.4866C20.7361 20.2439 20.5393 20.0472 20.2966 20.0472C20.0539 20.0472 19.8572 20.2439 19.8572 20.4866Z" fill="white"/>
<path d="M23.3139 13.7291V10.816C23.3139 10.5733 23.1171 10.3765 22.8744 10.3765C22.6317 10.3765 22.4349 10.5733 22.4349 10.816V13.7291C22.4349 13.9718 22.6317 14.1686 22.8744 14.1686C23.1171 14.1686 23.3139 13.9718 23.3139 13.7291Z" fill="white"/>
<path d="M18.4977 12.7448C18.4977 13.5299 19.1364 14.1686 19.9215 14.1686C20.7066 14.1686 21.3453 13.5299 21.3453 12.7448V11.8003C21.3453 11.0152 20.7066 10.3765 19.9215 10.3765C19.1364 10.3765 18.4977 11.0152 18.4977 11.8003V12.7448ZM19.3767 11.8003C19.3767 11.4999 19.6211 11.2555 19.9215 11.2555C20.2219 11.2555 20.4663 11.4999 20.4663 11.8003V12.7448C20.4663 13.0452 20.2219 13.2896 19.9215 13.2896C19.6211 13.2896 19.3767 13.0452 19.3767 12.7448V11.8003Z" fill="white"/>
<path d="M16.9686 10.3765C16.7259 10.3765 16.5291 10.5733 16.5291 10.816V13.7291C16.5291 13.9718 16.7259 14.1686 16.9686 14.1686C17.2113 14.1686 17.408 13.9718 17.408 13.7291V10.816C17.408 10.5733 17.2113 10.3765 16.9686 10.3765Z" fill="white"/>
<path d="M14.5605 13.7291C14.5605 13.9718 14.7573 14.1686 15 14.1686C15.2427 14.1686 15.4394 13.9718 15.4394 13.7291V10.816C15.4394 10.5733 15.2427 10.3765 15 10.3765C14.7573 10.3765 14.5605 10.5733 14.5605 10.816V13.7291Z" fill="white"/>
<path d="M13.0314 14.1686C13.2741 14.1686 13.4709 13.9718 13.4709 13.7291V10.816C13.4709 10.5733 13.2741 10.3765 13.0314 10.3765C12.7887 10.3765 12.5919 10.5733 12.5919 10.816V13.7291C12.5919 13.9718 12.7887 14.1686 13.0314 14.1686Z" fill="white"/>
<path d="M8.65468 11.8003V12.7448C8.65468 13.5299 9.29338 14.1686 10.0784 14.1686C10.8635 14.1686 11.5022 13.5299 11.5022 12.7448V11.8003C11.5022 11.0152 10.8635 10.3765 10.0784 10.3765C9.29338 10.3765 8.65468 11.0152 8.65468 11.8003ZM10.6233 11.8003V12.7448C10.6233 13.0452 10.3789 13.2896 10.0784 13.2896C9.77802 13.2896 9.53362 13.0452 9.53362 12.7448V11.8003C9.53362 11.4999 9.77802 11.2555 10.0784 11.2555C10.3789 11.2555 10.6233 11.4999 10.6233 11.8003Z" fill="white"/>
<path d="M7.12555 10.3765C6.88285 10.3765 6.68608 10.5733 6.68608 10.816V13.7291C6.68608 13.9718 6.88285 14.1686 7.12555 14.1686C7.36826 14.1686 7.56502 13.9718 7.56502 13.7291V10.816C7.56502 10.5733 7.36826 10.3765 7.12555 10.3765Z" fill="white"/>
<path d="M20.4663 16.7475V17.6919C20.4663 18.477 21.105 19.1157 21.8901 19.1157C22.6752 19.1157 23.3139 18.477 23.3139 17.6919V16.7475C23.3139 15.9624 22.6752 15.3237 21.8901 15.3237C21.105 15.3237 20.4663 15.9624 20.4663 16.7475ZM22.4349 16.7475V17.6919C22.4349 17.9924 22.1905 18.2368 21.8901 18.2368C21.5897 18.2368 21.3453 17.9924 21.3453 17.6919V16.7475C21.3453 16.4471 21.5897 16.2027 21.8901 16.2027C22.1905 16.2027 22.4349 16.4471 22.4349 16.7475Z" fill="white"/>
<path d="M18.4977 18.6762C18.4977 18.9189 18.6945 19.1157 18.9372 19.1157C19.1799 19.1157 19.3767 18.9189 19.3767 18.6762V15.7631C19.3767 15.5204 19.1799 15.3237 18.9372 15.3237C18.6945 15.3237 18.4977 15.5204 18.4977 15.7631V18.6762Z" fill="white"/>
<path d="M14.5605 17.6919C14.5605 18.477 15.1992 19.1157 15.9843 19.1157C16.7693 19.1157 17.408 18.477 17.408 17.6919V16.7475C17.408 15.9624 16.7693 15.3237 15.9843 15.3237C15.1992 15.3237 14.5605 15.9624 14.5605 16.7475V17.6919ZM15.4394 16.7475C15.4394 16.4471 15.6838 16.2027 15.9843 16.2027C16.2847 16.2027 16.5291 16.4471 16.5291 16.7475V17.6919C16.5291 17.9924 16.2847 18.2368 15.9843 18.2368C15.6838 18.2368 15.4394 17.9924 15.4394 17.6919V16.7475Z" fill="white"/>
<path d="M12.5919 18.6762C12.5919 18.9189 12.7887 19.1157 13.0314 19.1157C13.2741 19.1157 13.4709 18.9189 13.4709 18.6762V15.7631C13.4709 15.5204 13.2741 15.3237 13.0314 15.3237C12.7887 15.3237 12.5919 15.5204 12.5919 15.7631V18.6762Z" fill="white"/>
<path d="M11.5022 18.6762V15.7631C11.5022 15.5204 11.3054 15.3237 11.0627 15.3237C10.82 15.3237 10.6233 15.5204 10.6233 15.7631V18.6762C10.6233 18.9189 10.82 19.1157 11.0627 19.1157C11.3054 19.1157 11.5022 18.919 11.5022 18.6762Z" fill="white"/>
<path d="M6.68608 16.7475V17.6919C6.68608 18.477 7.32478 19.1157 8.10985 19.1157C8.89492 19.1157 9.53361 18.477 9.53361 17.6919V16.7475C9.53361 15.9624 8.89492 15.3237 8.10985 15.3237C7.32478 15.3237 6.68608 15.9624 6.68608 16.7475ZM8.65467 16.7475V17.6919C8.65467 17.9924 8.41027 18.2368 8.10985 18.2368C7.80943 18.2368 7.56502 17.9924 7.56502 17.6919V16.7475C7.56502 16.4471 7.80943 16.2027 8.10985 16.2027C8.41027 16.2027 8.65467 16.4471 8.65467 16.7475Z" fill="white"/>
</svg>
