<svg width="29" height="29" viewBox="0 0 29 29" fill="none" xmlns="http://www.w3.org/2000/svg">
<rect x="29" y="29" width="29" height="29" transform="rotate(-180 29 29)" fill="#2C7444"/>
<ellipse cx="15" cy="15" rx="9" ry="9" transform="rotate(-180 15 15)" fill="white"/>
<path d="M26.0391 13.9983C26.0387 7.91016 21.0865 2.95865 14.9983 2.9591C8.91021 2.95955 3.9587 7.91179 3.95915 13.9999C3.9596 20.088 8.91184 25.0396 15 25.0391C21.0881 25.0386 26.0396 20.0864 26.0391 13.9983ZM14.5196 19.7591L14.5188 9.39789L11.4984 12.4187C11.3109 12.6062 11.0072 12.6063 10.8197 12.4188C10.7259 12.325 10.679 12.2032 10.679 12.0794C10.679 11.9557 10.7259 11.8338 10.8196 11.74L14.6593 7.89975C14.7043 7.85475 14.7568 7.82099 14.8149 7.79661C14.9331 7.74786 15.0643 7.74785 15.1824 7.79659C15.2406 7.82096 15.2931 7.8547 15.3381 7.8997L19.1784 11.7394C19.3659 11.9269 19.3659 12.2307 19.1784 12.4182C18.9909 12.6057 18.6872 12.6057 18.4997 12.4182L15.4788 9.39782L15.4796 19.7591C15.4796 20.0253 15.264 20.2391 14.9996 20.2391C14.7352 20.2391 14.5196 20.0254 14.5196 19.7591Z" fill="#2C7444"/>
</svg>
