<svg fill="#000000" xmlns="http://www.w3.org/2000/svg"  viewBox="0 0 26 26" width="26px" height="26px"><path d="M 13 0 C 5.820313 0 0 5.820313 0 13 C 0 20.179688 5.820313 26 13 26 C 20.179688 26 26 20.179688 26 13 C 26 9.507813 24.617188 6.335938 22.375 4 C 22.3125 3.9375 22.25 3.875 22.1875 3.8125 C 21.347656 2.972656 20.386719 2.242188 19.34375 1.65625 C 19.292969 1.625 19.242188 1.589844 19.1875 1.5625 C 19.085938 1.507813 18.980469 1.460938 18.875 1.40625 C 18.609375 1.273438 18.335938 1.148438 18.0625 1.03125 C 17.703125 0.878906 17.34375 0.746094 16.96875 0.625 C 16.9375 0.613281 16.90625 0.601563 16.875 0.59375 C 16.070313 0.34375 15.238281 0.152344 14.375 0.0625 C 14.363281 0.0625 14.355469 0.0625 14.34375 0.0625 C 13.90625 0.0195313 13.449219 0 13 0 Z M 13 2 L 13 7 C 9.691406 7 7 9.691406 7 13 C 7 16.308594 9.691406 19 13 19 C 14.285156 19 15.460938 18.566406 16.4375 17.875 L 20.03125 21.46875 C 18.125 23.054688 15.667969 24 13 24 C 6.933594 24 2 19.066406 2 13 C 2 6.933594 6.933594 2 13 2 Z M 20.9375 5.375 C 22.191406 6.679688 23.101563 8.296875 23.59375 10.09375 C 23.25 10.25 23 10.59375 23 11 C 23 11.53125 23.414063 11.964844 23.9375 12 C 23.96875 12.328125 24 12.664063 24 13 C 24 13.335938 23.96875 13.671875 23.9375 14 C 23.414063 14.035156 23 14.46875 23 15 C 23 15.40625 23.25 15.75 23.59375 15.90625 C 23.171875 17.441406 22.460938 18.839844 21.46875 20.03125 L 20.875 19.4375 C 20.945313 19.300781 21 19.164063 21 19 C 21 18.449219 20.550781 18 20 18 C 19.835938 18 19.699219 18.054688 19.5625 18.125 L 18.875 17.4375 C 18.945313 17.300781 19 17.164063 19 17 C 19 16.503906 18.628906 16.109375 18.15625 16.03125 C 18.6875 15.136719 19 14.113281 19 13 C 19 11.886719 18.6875 10.863281 18.15625 9.96875 C 18.628906 9.890625 19 9.496094 19 9 C 19 8.503906 18.628906 8.109375 18.15625 8.03125 L 19.03125 7.1875 C 19.121094 7.644531 19.515625 8 20 8 C 20.550781 8 21 7.550781 21 7 C 21 6.527344 20.65625 6.167969 20.21875 6.0625 Z M 22 8 C 21.449219 8 21 8.449219 21 9 C 21 9.550781 21.449219 10 22 10 C 22.550781 10 23 9.550781 23 9 C 23 8.449219 22.550781 8 22 8 Z M 13 9 C 14.132813 9 15.148438 9.460938 15.875 10.21875 C 16.570313 10.9375 17 11.921875 17 13 C 17 15.210938 15.210938 17 13 17 C 10.789063 17 9 15.210938 9 13 C 9 10.789063 10.789063 9 13 9 Z M 20 10 C 19.449219 10 19 10.449219 19 11 C 19 11.550781 19.449219 12 20 12 C 20.550781 12 21 11.550781 21 11 C 21 10.449219 20.550781 10 20 10 Z M 22 12 C 21.449219 12 21 12.449219 21 13 C 21 13.550781 21.449219 14 22 14 C 22.550781 14 23 13.550781 23 13 C 23 12.449219 22.550781 12 22 12 Z M 20 14 C 19.449219 14 19 14.449219 19 15 C 19 15.550781 19.449219 16 20 16 C 20.550781 16 21 15.550781 21 15 C 21 14.449219 20.550781 14 20 14 Z M 22 16 C 21.449219 16 21 16.449219 21 17 C 21 17.550781 21.449219 18 22 18 C 22.550781 18 23 17.550781 23 17 C 23 16.449219 22.550781 16 22 16 Z"/></svg>