<svg width="22" height="22" viewBox="0 0 22 22" fill="none" xmlns="http://www.w3.org/2000/svg">
<path d="M21.5469 21.1367H20.4922V16.2617C20.4918 15.9491 20.3675 15.6494 20.1464 15.4283C19.9254 15.2073 19.6257 15.0829 19.313 15.0826H14.438V9.88342C14.4377 9.57081 14.3133 9.27111 14.0923 9.05006C13.8712 8.82901 13.5715 8.70466 13.2589 8.70428H8.74203C8.42942 8.70466 8.12971 8.82901 7.90866 9.05006C7.68761 9.27111 7.56326 9.57081 7.56289 9.88342V12.301H2.68789C2.37511 12.3011 2.07517 12.4254 1.85392 12.6464C1.63266 12.8675 1.50819 13.1674 1.50781 13.4801V21.1367H0.453125C0.344345 21.1367 0.24002 21.1799 0.163101 21.2568C0.0861817 21.3338 0.0429688 21.4381 0.0429688 21.5469C0.0429688 21.6556 0.0861817 21.76 0.163101 21.8369C0.24002 21.9138 0.344345 21.957 0.453125 21.957H21.5469C21.6557 21.957 21.76 21.9138 21.8369 21.8369C21.9138 21.76 21.957 21.6556 21.957 21.5469C21.957 21.4381 21.9138 21.3338 21.8369 21.2568C21.76 21.1799 21.6557 21.1367 21.5469 21.1367ZM2.32812 13.4801C2.32819 13.385 2.36601 13.2938 2.43329 13.2265C2.50057 13.1592 2.5918 13.1214 2.68695 13.1213H7.56195V21.1369H2.32812V13.4801ZM8.3832 12.7109V9.88342C8.38326 9.78828 8.42109 9.69704 8.48837 9.62976C8.55565 9.56248 8.64688 9.52466 8.74203 9.5246H13.258C13.3531 9.52472 13.4443 9.56257 13.5116 9.62983C13.5788 9.6971 13.6167 9.7883 13.6168 9.88342V21.1367H8.3832V12.7109ZM14.4371 21.1365V15.9029H19.3121C19.3593 15.9028 19.406 15.912 19.4496 15.93C19.4933 15.948 19.5329 15.9745 19.5663 16.0078C19.5997 16.0411 19.6262 16.0807 19.6443 16.1242C19.6625 16.1678 19.6718 16.2145 19.6719 16.2617V21.1367L14.4371 21.1365Z" fill="white"/>
<path d="M8.93611 4.53592L8.5897 6.55694C8.57676 6.63237 8.58518 6.70991 8.61401 6.78081C8.64284 6.8517 8.69093 6.91312 8.75284 6.95811C8.81475 7.00309 8.88802 7.02986 8.96435 7.03539C9.04068 7.04091 9.11704 7.02497 9.18478 6.98936L11 6.03522L12.815 6.98936C12.8828 7.02497 12.9591 7.04091 13.0354 7.03539C13.1118 7.02986 13.185 7.00309 13.247 6.95811C13.3089 6.91312 13.357 6.8517 13.3858 6.78081C13.4146 6.70991 13.423 6.63237 13.4101 6.55694L13.0625 4.53592L14.5309 3.10483C14.5857 3.05141 14.6244 2.98372 14.6428 2.90941C14.6611 2.8351 14.6583 2.75715 14.6347 2.68436C14.611 2.61157 14.5675 2.54685 14.5089 2.49752C14.4504 2.44819 14.3793 2.41622 14.3035 2.40522L12.2743 2.11038L11.367 0.271704C11.3332 0.203048 11.2808 0.145239 11.2158 0.104816C11.1508 0.0643922 11.0757 0.0429688 10.9992 0.0429688C10.9226 0.0429688 10.8476 0.0643922 10.7826 0.104816C10.7176 0.145239 10.6652 0.203048 10.6313 0.271704L9.72384 2.11038L7.69533 2.40522C7.61958 2.41622 7.54843 2.44819 7.48991 2.49752C7.4314 2.54685 7.38785 2.61157 7.3642 2.68436C7.34054 2.75715 7.33773 2.8351 7.35607 2.90941C7.37441 2.98372 7.41318 3.05141 7.46798 3.10483L8.93611 4.53592ZM10.0557 2.89061C10.1215 2.88103 10.184 2.85561 10.2378 2.81654C10.2916 2.77747 10.3351 2.72592 10.3646 2.66631L11 1.37983L11.6352 2.66678C11.6646 2.72639 11.7082 2.77794 11.762 2.81701C11.8158 2.85608 11.8783 2.8815 11.9441 2.89108L13.3642 3.09756L12.336 4.09928C12.2885 4.14575 12.2531 4.20305 12.2326 4.26624C12.2122 4.32944 12.2075 4.39665 12.2188 4.46209L12.4613 5.87655L11.1913 5.20881C11.1324 5.17788 11.0669 5.16171 11.0004 5.16171C10.9339 5.16171 10.8683 5.17788 10.8095 5.20881L9.53869 5.87655L9.78126 4.46092C9.79262 4.39548 9.78789 4.32825 9.76748 4.26504C9.74706 4.20184 9.71157 4.14454 9.66408 4.09811L8.63658 3.09639L10.0557 2.89061Z" fill="white"/>
</svg>
