<svg width="22" height="22" viewBox="0 0 22 22" fill="none" xmlns="http://www.w3.org/2000/svg">
<path d="M1.07418 22C0.861686 22 0.653958 21.937 0.477267 21.819C0.300575 21.701 0.162859 21.5332 0.0815376 21.3369C0.000216019 21.1405 -0.0210574 20.9245 0.0204081 20.7161C0.0618737 20.5077 0.164215 20.3163 0.314488 20.1661L20.166 0.31449C20.3675 0.113008 20.6408 -0.000183105 20.9257 -0.000183105C21.2107 -0.000183105 21.4839 0.113008 21.6854 0.31449C21.8869 0.515971 22.0001 0.789239 22.0001 1.07418C22.0001 1.35912 21.8869 1.63238 21.6854 1.83386L1.83386 21.6854C1.73419 21.7853 1.61577 21.8645 1.4854 21.9185C1.35503 21.9725 1.21528 22.0001 1.07418 22Z" fill="black"/>
<path d="M20.926 22C20.7849 22.0001 20.6451 21.9725 20.5148 21.9185C20.3844 21.8645 20.266 21.7853 20.1663 21.6854L0.314734 1.83386C0.113252 1.63238 6.10352e-05 1.35912 6.10352e-05 1.07418C6.10352e-05 0.789239 0.113252 0.515971 0.314734 0.31449C0.516216 0.113008 0.789483 -0.000183105 1.07442 -0.000183105C1.35936 -0.000183105 1.63263 0.113008 1.83411 0.31449L21.6857 20.1661C21.8359 20.3163 21.9383 20.5077 21.9798 20.7161C22.0212 20.9245 21.9999 21.1405 21.9186 21.3369C21.8373 21.5332 21.6996 21.701 21.5229 21.819C21.3462 21.937 21.1385 22 20.926 22Z" fill="black"/>
</svg>
