<svg width="24" height="19" viewBox="0 0 24 19" fill="none" xmlns="http://www.w3.org/2000/svg">
<path d="M21.534 4.73831C22.51 4.06308 23.331 3.22026 24 2.24979V2.24882C23.107 2.6298 22.157 2.88313 21.165 3.0059C22.185 2.41251 22.964 1.48005 23.33 0.356615C22.379 0.909077 21.329 1.29882 20.21 1.51708C19.307 0.579744 18.02 0 16.616 0C13.892 0 11.699 2.15431 11.699 4.79482C11.699 5.17482 11.732 5.54021 11.813 5.88805C7.723 5.69318 4.103 3.78344 1.671 0.873026C1.247 1.59113 0.997 2.41251 0.997 3.29626C0.997 4.95656 1.874 6.42785 3.183 7.28041C2.392 7.2658 1.617 7.04169 0.96 6.68995V6.74256C0.96 9.07226 2.665 11.0073 4.902 11.4536C4.501 11.5608 4.065 11.6114 3.612 11.6114C3.297 11.6114 2.979 11.5939 2.681 11.5296C3.318 13.4276 5.128 14.8239 7.278 14.8697C5.604 16.1451 3.478 16.9139 1.177 16.9139C0.774 16.9139 0.387 16.8964 0 16.8486C2.18 18.2176 4.762 19 7.548 19C16.231 19 21.89 11.9417 21.534 4.73831Z" fill="url(#paint0_linear_7964_4951)"/>
<defs>
<linearGradient id="paint0_linear_7964_4951" x1="12" y1="0" x2="12" y2="19" gradientUnits="userSpaceOnUse">
<stop stop-color="#5B218F"/>
<stop offset="1" stop-color="#DA57FF"/>
</linearGradient>
</defs>
</svg>
