<svg width="27" height="30" viewBox="0 0 27 30" fill="none" xmlns="http://www.w3.org/2000/svg">
<path d="M26.4183 14.4094C26.1595 14.4094 25.9496 14.6192 25.9496 14.8781V15.1218C25.9496 15.3807 26.1595 15.5906 26.4183 15.5906C26.6772 15.5906 26.8871 15.3807 26.8871 15.1218V14.8781C26.8871 14.6192 26.6772 14.4094 26.4183 14.4094Z" fill="white"/>
<path d="M1.6875 23.7308L11.7597 29.5473C12.2793 29.8492 12.8616 30 13.4438 30C14.0258 30 14.6076 29.8492 15.1263 29.548L25.1982 23.7315C26.2401 23.1346 26.8871 22.0179 26.8871 20.817V17.2639C26.8871 17.0051 26.6773 16.7952 26.4184 16.7952C26.1596 16.7952 25.9497 17.0051 25.9497 17.2639V20.817C25.9497 21.6826 25.4832 22.4878 24.7309 22.9188L14.6564 28.7367C13.9085 29.1715 12.979 29.1718 12.2297 28.736L2.15489 22.9181C1.40393 22.4878 0.937465 21.6826 0.937465 20.817V9.18296C0.937465 8.31735 1.40393 7.51216 2.15623 7.08115L12.2307 1.26337C12.9787 0.828514 13.9081 0.82827 14.6575 1.26404L24.7322 7.08189C25.4831 7.51216 25.9496 8.31735 25.9496 9.18296V12.736C25.9496 12.9949 26.1595 13.2048 26.4183 13.2048C26.6772 13.2048 26.8871 12.9949 26.8871 12.736V9.18296C26.8871 7.98205 26.24 6.86535 25.1996 6.26911L15.1274 0.452672C14.0885 -0.150901 12.7983 -0.150656 11.7608 0.452L1.6889 6.26844C0.647053 6.86535 0 7.98205 0 9.18296V20.817C0 22.0179 0.647053 23.1346 1.6875 23.7308Z" fill="white"/>
<path d="M13.6779 4.63608C13.5328 4.5523 13.3543 4.5523 13.2092 4.63608L4.58538 9.61504C4.44027 9.69881 4.35098 9.85353 4.35098 10.0211V19.9788C4.35098 20.1464 4.44027 20.3011 4.58538 20.3849L13.2092 25.3638C13.2817 25.4057 13.3626 25.4266 13.4436 25.4266C13.5246 25.4266 13.6054 25.4057 13.678 25.3638L22.3019 20.3849C22.447 20.3011 22.5363 20.1464 22.5363 19.9788V10.0211C22.5363 9.85353 22.447 9.69881 22.3019 9.61504L13.6779 4.63608ZM21.5986 19.7083L13.4435 24.4165L5.28845 19.7083V10.2916L13.4435 5.58339L21.5986 10.2916V19.7083Z" fill="white"/>
<path d="M10.5349 12.2161C10.2761 12.2161 10.0662 12.426 10.0662 12.6848V15.7433L7.89623 12.428C7.78248 12.2547 7.56778 12.1765 7.37001 12.2355C7.17133 12.2947 7.03514 12.4774 7.03514 12.6848V17.3151C7.03514 17.574 7.24502 17.7839 7.50387 17.7839C7.76273 17.7839 7.97261 17.574 7.97261 17.3151V14.2567L10.1426 17.572C10.3967 17.9591 11.0036 17.7821 11.0036 17.3152V12.6848C11.0037 12.426 10.7938 12.2161 10.5349 12.2161Z" fill="white"/>
<path d="M16.0916 13.1535H17.2685V17.3152C17.2685 17.574 17.4784 17.7839 17.7372 17.7839C17.9961 17.7839 18.206 17.574 18.206 17.3152V13.1535H19.3831C19.6419 13.1535 19.8518 12.9437 19.8518 12.6848C19.8518 12.4259 19.6419 12.2161 19.3831 12.2161H16.0916C15.8328 12.2161 15.6229 12.4259 15.6229 12.6848C15.6229 12.9437 15.8328 13.1535 16.0916 13.1535Z" fill="white"/>
<path d="M11.9256 12.6848V17.3152C11.9256 17.574 12.1355 17.7839 12.3943 17.7839C12.6532 17.7839 12.8631 17.574 12.8631 17.3152V15.4688H14.7124C14.9712 15.4688 15.1811 15.2589 15.1811 15.0001C15.1811 14.7412 14.9712 14.5314 14.7124 14.5314H12.8631V13.1535H14.7124C14.9712 13.1535 15.1811 12.9437 15.1811 12.6848C15.1811 12.4259 14.9712 12.2161 14.7124 12.2161H12.3943C12.1355 12.2161 11.9256 12.4259 11.9256 12.6848Z" fill="white"/>
</svg>
