<svg width="23" height="25" viewBox="0 0 23 25" fill="none" xmlns="http://www.w3.org/2000/svg">
<path d="M21.7175 12.375C21.5047 12.375 21.3322 12.5448 21.3322 12.7542V12.9514C21.3322 13.1608 21.5047 13.3306 21.7175 13.3306C21.9303 13.3306 22.1028 13.1608 22.1028 12.9514V12.7542C22.1028 12.5448 21.9303 12.375 21.7175 12.375Z" fill="#C74FF9"/>
<path d="M1.38723 19.9159L9.66722 24.6213C10.0943 24.8656 10.573 24.9876 11.0516 24.9876C11.5301 24.9876 12.0084 24.8656 12.4347 24.6219L20.7145 19.9165C21.571 19.4336 22.1029 18.5302 22.1029 17.5587V14.6843C22.1029 14.4749 21.9304 14.3051 21.7176 14.3051C21.5048 14.3051 21.3323 14.4749 21.3323 14.6843V17.5587C21.3323 18.2589 20.9488 18.9103 20.3304 19.259L12.0485 23.9655C11.4336 24.3173 10.6695 24.3175 10.0535 23.965L1.77145 19.2584C1.15412 18.9103 0.770655 18.2589 0.770655 17.5587V8.14696C0.770655 7.44669 1.15412 6.79531 1.77256 6.44663L10.0544 1.74015C10.6693 1.38836 11.4333 1.38816 12.0494 1.7407L20.3314 6.44723C20.9487 6.79531 21.3322 7.44669 21.3322 8.14696V11.0213C21.3322 11.2307 21.5047 11.4005 21.7175 11.4005C21.9303 11.4005 22.1029 11.2307 22.1029 11.0213V8.14696C22.1029 7.17544 21.5709 6.27205 20.7156 5.78971L12.4356 1.08431C11.5816 0.596033 10.521 0.596231 9.66812 1.08377L1.38838 5.78916C0.531918 6.27205 0 7.17544 0 8.14696V17.5587C0 18.5302 0.531918 19.4336 1.38723 19.9159Z" fill="#C74FF9"/>
<path d="M11.2441 4.46863C11.1248 4.40086 10.9781 4.40086 10.8588 4.46863L3.76949 8.49652C3.6502 8.5643 3.5768 8.68946 3.5768 8.82501V16.8806C3.5768 17.0162 3.6502 17.1413 3.76949 17.2091L10.8588 21.237C10.9184 21.2709 10.9849 21.2878 11.0515 21.2878C11.1181 21.2878 11.1845 21.2709 11.2442 21.237L18.3336 17.2091C18.4529 17.1413 18.5262 17.0162 18.5262 16.8806V8.82501C18.5262 8.68946 18.4529 8.5643 18.3336 8.49652L11.2441 4.46863ZM17.7554 16.6618L11.0514 20.4707L4.34746 16.6618V9.04387L11.0514 5.23499L17.7554 9.04387V16.6618Z" fill="#C74FF9"/>
<path d="M8.66037 10.6006C8.44758 10.6006 8.27505 10.7704 8.27505 10.9798V13.4541L6.49118 10.7721C6.39767 10.6319 6.22117 10.5686 6.0586 10.6163C5.89527 10.6643 5.78331 10.812 5.78331 10.9798V14.7257C5.78331 14.9351 5.95584 15.1049 6.16864 15.1049C6.38144 15.1049 6.55397 14.9351 6.55397 14.7257V12.2514L8.33783 14.9335C8.54671 15.2466 9.04565 15.1034 9.04565 14.7257V10.9798C9.0457 10.7704 8.87317 10.6006 8.66037 10.6006Z" fill="#C74FF9"/>
<path d="M13.2283 11.3591H14.1958V14.7258C14.1958 14.9352 14.3683 15.105 14.5811 15.105C14.7939 15.105 14.9664 14.9352 14.9664 14.7258V11.3591H15.9341C16.1469 11.3591 16.3194 11.1893 16.3194 10.9799C16.3194 10.7705 16.1469 10.6007 15.9341 10.6007H13.2283C13.0155 10.6007 12.843 10.7705 12.843 10.9799C12.843 11.1893 13.0155 11.3591 13.2283 11.3591Z" fill="#C74FF9"/>
<path d="M9.80359 10.9799V14.7258C9.80359 14.9352 9.97612 15.105 10.1889 15.105C10.4017 15.105 10.5742 14.9352 10.5742 14.7258V13.2321H12.0945C12.3073 13.2321 12.4798 13.0623 12.4798 12.8529C12.4798 12.6435 12.3073 12.4737 12.0945 12.4737H10.5742V11.3591H12.0945C12.3073 11.3591 12.4798 11.1893 12.4798 10.9799C12.4798 10.7705 12.3073 10.6007 12.0945 10.6007H10.1889C9.97612 10.6007 9.80359 10.7705 9.80359 10.9799Z" fill="#C74FF9"/>
</svg>
